<svg id="svg" version="1.1" xmlns="http://www.w3.org/2000/svg" xmlns:xlink="http://www.w3.org/1999/xlink" width="400" height="408.44444444444446" viewBox="0, 0, 400,408.44444444444446"><g id="svgg"><path id="path0" d="M225.839 55.135 C 225.912 55.305,226.380 56.375,226.879 57.513 C 235.378 76.902,221.336 99.060,200.000 99.927 C 177.478 100.842,161.601 77.422,170.935 57.053 C 171.314 56.226,171.580 55.506,171.526 55.452 C 171.330 55.256,162.571 57.222,160.056 58.026 C 159.215 58.294,159.215 58.294,159.749 60.348 L 160.157 61.917 158.912 63.472 C 157.348 65.423,157.562 65.475,155.362 62.610 C 154.339 61.278,153.383 60.142,153.239 60.087 C 153.014 60.000,147.607 61.677,147.354 61.912 C 147.304 61.958,148.604 63.762,150.243 65.921 C 151.881 68.079,153.304 69.982,153.403 70.150 C 153.544 70.388,150.379 75.039,148.535 77.302 C 148.454 77.401,141.893 73.796,136.378 70.621 L 132.201 68.217 129.323 69.680 C 127.740 70.485,126.444 71.215,126.444 71.302 C 126.444 71.475,136.220 77.328,141.333 80.217 C 145.184 82.392,145.003 82.238,144.481 82.906 C 144.250 83.202,142.134 86.280,139.778 89.745 L 135.494 96.045 134.025 95.897 C 131.827 95.675,130.642 95.547,129.778 95.439 C 129.350 95.385,128.400 95.282,127.667 95.210 C 122.364 94.687,110.394 92.850,103.222 91.458 L 98.333 90.510 96.809 91.866 C 95.970 92.612,95.020 93.438,94.698 93.702 C 94.375 93.966,94.182 94.254,94.270 94.342 C 95.034 95.114,117.188 99.495,125.667 100.552 C 126.759 100.688,127.791 100.833,128.889 101.005 C 129.194 101.053,129.993 101.153,130.664 101.228 C 131.335 101.304,131.913 101.394,131.949 101.430 C 131.984 101.466,130.675 103.684,129.039 106.359 C 124.085 114.459,120.239 121.302,117.004 127.778 C 116.180 129.428,115.468 130.818,115.422 130.867 C 115.315 130.983,108.638 132.379,107.349 132.556 C 106.807 132.630,106.307 132.724,106.238 132.766 C 106.168 132.807,105.661 132.903,105.111 132.978 C 104.561 133.053,103.861 133.158,103.556 133.212 C 94.894 134.731,80.429 134.861,78.707 133.436 C 78.669 133.404,78.911 132.843,79.246 132.189 C 82.028 126.761,75.982 120.487,70.422 123.033 C 68.783 123.783,66.212 128.011,66.339 129.747 C 66.644 133.932,71.292 137.067,75.150 135.689 C 75.621 135.520,76.091 135.476,76.261 135.584 C 77.164 136.156,81.530 137.392,83.662 137.679 C 84.270 137.761,85.020 137.862,85.328 137.903 C 87.389 138.181,94.198 138.246,97.556 138.020 C 101.745 137.738,101.820 137.731,106.444 137.200 C 106.994 137.137,108.640 136.895,110.102 136.663 C 113.217 136.169,113.063 136.114,112.377 137.478 C 107.357 147.463,103.339 163.298,104.191 169.738 C 104.401 171.321,104.389 171.392,103.762 172.404 C 100.004 178.462,107.413 185.429,113.358 181.428 C 114.425 180.710,114.596 180.667,116.376 180.667 C 123.112 180.667,133.736 176.108,146.097 167.915 C 147.678 166.867,148.990 166.032,149.011 166.060 C 149.032 166.088,149.165 168.411,149.306 171.222 C 150.002 185.104,152.121 194.881,155.600 200.264 C 156.434 201.555,156.474 201.691,156.245 202.457 C 153.828 210.525,165.645 214.760,169.011 207.033 C 169.591 205.701,169.688 205.604,171.239 204.806 C 178.801 200.913,188.454 188.917,197.660 171.972 C 198.349 170.704,198.995 169.584,199.095 169.483 C 199.195 169.383,200.203 170.933,201.334 172.928 C 210.938 189.866,220.948 201.730,228.282 204.868 C 228.866 205.117,229.380 205.449,229.425 205.605 C 230.169 208.185,231.329 209.638,233.373 210.555 C 238.748 212.968,244.503 207.741,242.554 202.217 C 242.224 201.284,242.230 201.249,242.879 200.237 C 246.555 194.509,248.721 184.093,249.243 169.639 L 249.396 165.389 252.198 167.220 C 264.509 175.265,275.507 179.839,282.461 179.807 C 283.687 179.801,283.709 179.813,284.507 180.882 C 286.215 183.170,289.906 184.135,292.472 182.963 C 296.916 180.934,298.028 175.288,294.631 171.992 L 293.782 171.168 294.029 169.862 C 295.242 163.436,292.001 150.274,285.986 137.193 C 284.992 135.030,284.814 135.155,288.168 135.658 C 302.962 137.878,315.038 137.388,321.428 134.308 C 322.422 133.829,322.558 133.812,322.903 134.124 C 326.438 137.323,333.110 134.385,333.704 129.367 C 333.905 127.667,330.675 122.645,329.125 122.247 C 324.150 120.972,320.039 124.046,320.273 128.865 C 320.324 129.917,320.441 130.942,320.531 131.144 C 320.784 131.702,317.688 132.658,314.444 133.023 C 311.652 133.337,302.709 133.197,299.667 132.791 C 299.300 132.743,298.400 132.639,297.667 132.561 C 295.418 132.322,290.982 131.597,286.646 130.759 L 282.514 129.960 282.016 128.925 C 279.548 123.794,271.729 110.261,267.191 103.269 C 265.469 100.614,265.471 100.625,266.444 100.513 C 275.969 99.412,304.444 93.628,304.444 92.795 C 304.444 92.760,303.500 91.917,302.345 90.922 L 300.246 89.112 298.845 89.435 C 290.628 91.332,272.566 94.275,263.301 95.227 L 262.046 95.356 259.868 92.178 C 258.670 90.430,256.558 87.422,255.176 85.493 C 253.793 83.564,252.638 81.896,252.609 81.787 C 252.580 81.677,254.556 80.417,257.000 78.986 C 261.305 76.466,266.573 73.262,269.998 71.082 L 271.663 70.022 268.635 68.566 L 265.607 67.110 262.192 69.140 C 256.275 72.657,249.098 76.700,248.899 76.626 C 248.794 76.587,247.562 75.046,246.162 73.201 L 243.616 69.847 245.269 67.646 C 248.376 63.506,250.055 61.093,249.922 60.959 C 249.772 60.809,245.554 59.417,244.646 59.218 C 244.112 59.100,243.885 59.329,241.900 61.985 L 239.736 64.880 238.351 63.167 L 236.965 61.453 237.449 59.404 L 237.932 57.355 235.577 56.803 C 234.282 56.500,231.922 55.999,230.333 55.691 C 225.635 54.779,225.689 54.786,225.839 55.135 M235.778 69.889 C 235.778 70.042,235.628 70.292,235.444 70.444 C 235.158 70.682,235.111 70.603,235.111 69.889 C 235.111 69.174,235.158 69.096,235.444 69.333 C 235.628 69.485,235.778 69.735,235.778 69.889 M162.222 70.185 C 162.222 70.994,162.005 71.204,161.659 70.730 C 161.454 70.449,161.447 70.256,161.635 69.955 C 161.997 69.376,162.222 69.464,162.222 70.185 M241.714 77.333 L 243.539 79.752 240.833 81.189 L 238.126 82.627 237.615 80.501 C 237.194 78.749,237.153 78.306,237.385 77.985 C 238.661 76.219,239.685 74.903,239.778 74.908 C 239.839 74.912,240.710 76.003,241.714 77.333 M158.711 76.833 C 160.302 78.814,160.274 78.753,160.027 79.717 C 159.909 80.178,159.697 81.132,159.556 81.836 L 159.301 83.116 156.654 81.725 C 155.198 80.959,154.006 80.256,154.004 80.162 C 154.001 80.029,157.348 75.382,157.475 75.343 C 157.492 75.338,158.048 76.008,158.711 76.833 M232.444 85.217 C 232.444 85.490,231.163 86.444,230.797 86.444 C 230.714 86.444,230.965 86.047,231.355 85.562 C 232.038 84.712,232.444 84.583,232.444 85.217 M248.110 85.833 C 250.105 88.502,255.333 95.840,255.333 95.970 C 255.333 96.048,255.008 96.132,254.611 96.157 C 254.214 96.183,252.139 96.357,250.000 96.545 C 242.529 97.202,241.444 97.285,241.360 97.206 C 241.195 97.052,239.557 88.814,239.669 88.702 C 239.830 88.541,246.975 84.674,247.119 84.670 C 247.185 84.668,247.631 85.192,248.110 85.833 M166.658 86.715 C 166.663 86.802,166.292 86.659,165.833 86.397 C 165.375 86.134,164.979 85.908,164.953 85.895 C 164.928 85.881,164.967 85.637,165.042 85.352 C 165.170 84.861,166.625 86.087,166.658 86.715 M154.778 87.559 C 156.489 88.450,157.905 89.189,157.925 89.201 C 157.991 89.240,156.284 97.568,156.191 97.661 C 156.014 97.838,142.481 96.777,142.273 96.570 C 142.216 96.512,142.515 95.986,142.938 95.399 C 143.361 94.813,145.179 92.254,146.978 89.712 L 150.249 85.091 150.958 85.515 C 151.348 85.748,153.067 86.668,154.778 87.559 M234.067 92.278 C 234.538 94.326,235.156 97.583,235.086 97.649 C 234.984 97.744,227.481 98.160,227.362 98.077 C 227.316 98.045,227.516 97.240,227.806 96.287 L 228.334 94.556 231.000 93.176 C 234.081 91.582,233.918 91.629,234.067 92.278 M166.531 93.596 L 169.288 94.969 169.755 96.577 C 170.012 97.461,170.222 98.247,170.222 98.324 C 170.222 98.529,162.814 98.201,162.579 97.985 C 162.347 97.772,163.406 92.222,163.679 92.222 C 163.731 92.222,165.014 92.840,166.531 93.596 M260.521 103.389 C 265.144 110.026,276.266 128.030,275.943 128.354 C 275.374 128.922,245.646 120.060,245.330 119.228 C 245.236 118.980,244.931 117.278,244.653 115.444 C 244.375 113.611,243.775 110.111,243.320 107.667 C 242.865 105.222,242.507 103.208,242.524 103.190 C 242.541 103.172,245.706 102.841,249.556 102.453 C 255.570 101.848,258.872 101.468,259.045 101.361 C 259.069 101.346,259.734 102.258,260.521 103.389 M143.667 102.655 C 145.989 102.891,149.523 103.209,151.519 103.362 L 155.150 103.640 155.015 104.315 C 154.941 104.686,154.377 108.192,153.761 112.106 C 153.146 116.020,152.601 119.430,152.549 119.683 C 152.383 120.500,131.934 126.976,122.354 129.246 L 121.708 129.399 122.445 128.088 C 129.536 115.482,137.965 102.225,138.889 102.226 C 139.194 102.226,141.344 102.419,143.667 102.655 M236.533 103.944 C 236.812 104.858,239.093 117.203,239.001 117.296 C 238.782 117.514,223.111 111.778,223.111 111.480 C 223.111 111.366,223.615 109.687,224.232 107.748 L 225.352 104.222 226.954 104.200 C 228.219 104.183,234.918 103.737,236.152 103.587 C 236.296 103.570,236.468 103.731,236.533 103.944 M167.874 104.449 C 170.310 104.572,172.321 104.697,172.343 104.726 C 172.494 104.921,174.696 111.823,174.628 111.890 C 174.388 112.130,159.355 117.778,158.956 117.778 C 158.731 117.778,159.223 114.561,160.577 107.167 L 161.157 104.001 162.301 104.113 C 162.930 104.175,165.438 104.326,167.874 104.449 M218.788 104.944 C 217.256 109.855,217.607 109.485,215.325 108.594 C 214.291 108.190,213.261 107.791,213.037 107.707 C 212.683 107.575,212.797 107.364,213.897 106.111 L 215.165 104.667 217.020 104.667 C 218.402 104.667,218.853 104.737,218.788 104.944 M183.757 106.248 C 184.700 107.308,184.891 107.640,184.646 107.795 C 184.197 108.077,180.401 109.589,180.337 109.510 C 180.243 109.396,178.889 105.229,178.889 105.055 C 178.889 104.964,179.714 104.891,180.722 104.894 L 182.556 104.899 183.757 106.248 M200.504 109.121 C 202.429 109.940,202.351 109.868,201.852 110.386 C 201.628 110.619,200.852 111.438,200.129 112.206 L 198.813 113.602 197.194 111.857 C 195.232 109.739,195.244 109.983,197.056 109.161 C 198.917 108.317,198.621 108.320,200.504 109.121 M212.822 114.089 L 215.533 115.140 213.621 120.737 C 212.569 123.815,211.671 126.379,211.624 126.434 C 211.506 126.574,203.097 118.150,203.166 117.961 C 203.197 117.877,204.366 116.563,205.764 115.041 L 208.305 112.274 209.208 112.656 C 209.705 112.867,211.331 113.512,212.822 114.089 M192.037 115.128 C 193.422 116.604,194.580 117.879,194.609 117.961 C 194.639 118.044,192.784 120.056,190.488 122.432 L 186.314 126.753 184.382 121.321 C 183.320 118.333,182.424 115.757,182.392 115.597 C 182.345 115.365,188.564 112.574,189.371 112.465 C 189.452 112.454,190.652 113.652,192.037 115.128 M226.126 119.078 C 228.807 120.037,233.050 121.501,235.556 122.330 C 238.061 123.160,240.130 123.852,240.153 123.868 C 240.617 124.200,244.172 153.279,243.960 155.005 C 243.827 156.084,229.856 144.169,218.455 133.255 L 216.133 131.031 216.866 129.015 C 217.269 127.907,218.345 124.907,219.256 122.348 C 220.830 117.930,221.060 117.333,221.195 117.333 C 221.226 117.333,223.445 118.118,226.126 119.078 M177.395 119.456 C 177.758 120.427,178.909 123.468,179.952 126.213 L 181.849 131.203 178.747 134.213 C 170.377 142.334,155.060 156.000,154.328 156.000 C 153.822 156.000,155.762 136.948,157.289 126.919 L 157.674 124.393 161.670 123.003 C 166.436 121.346,176.042 117.810,176.196 117.655 C 176.481 117.370,176.788 117.830,177.395 119.456 M209.292 132.500 C 209.527 133.001,199.549 157.789,199.118 157.774 C 198.751 157.761,188.667 133.672,188.667 132.807 C 188.667 132.671,190.990 130.234,193.829 127.393 L 198.992 122.227 204.103 127.280 C 206.914 130.059,209.249 132.408,209.292 132.500 M253.667 127.990 C 260.702 129.994,267.683 131.749,273.556 132.991 C 276.183 133.546,278.563 134.054,278.844 134.118 C 279.767 134.331,285.743 146.930,288.162 153.763 C 290.187 159.486,291.688 167.037,291.257 169.337 C 291.112 170.110,291.111 170.111,290.016 170.035 C 286.582 169.797,283.111 172.865,283.111 176.138 C 283.111 177.087,283.098 177.091,280.833 176.753 C 274.218 175.766,262.958 169.867,251.532 161.403 C 249.122 159.618,249.113 159.600,249.108 156.583 C 249.100 152.355,248.097 140.609,247.001 131.889 C 246.176 125.330,246.151 125.693,247.395 126.136 C 247.911 126.320,250.733 127.155,253.667 127.990 M151.464 127.722 C 150.161 138.664,149.590 145.851,149.188 156.416 L 149.041 160.277 145.909 162.616 C 135.270 170.564,124.647 176.358,118.556 177.537 C 117.822 177.679,117.016 177.838,116.764 177.891 C 116.329 177.983,116.307 177.893,116.320 176.049 C 116.353 171.271,111.668 167.786,107.464 169.461 C 107.058 169.623,107.045 169.534,107.175 167.426 C 107.586 160.713,111.363 149.688,117.328 137.788 L 118.653 135.144 120.382 134.773 C 128.606 133.007,140.915 129.748,148.778 127.256 C 150.122 126.830,151.311 126.473,151.419 126.463 C 151.530 126.452,151.549 127.009,151.464 127.722 M185.962 141.246 C 188.519 147.307,191.858 154.610,194.326 159.541 L 196.454 163.793 194.790 167.247 C 186.474 184.511,177.540 197.390,170.761 201.890 C 169.336 202.836,169.424 202.836,169.114 201.897 C 167.977 198.453,163.162 196.646,159.776 198.392 C 158.094 199.260,158.227 199.340,157.237 196.866 C 155.556 192.665,154.392 186.387,154.008 179.444 C 153.750 174.797,153.708 162.886,153.948 162.547 C 154.038 162.419,155.411 161.325,157.000 160.114 C 164.620 154.306,173.166 147.072,181.222 139.610 C 182.811 138.139,184.124 136.949,184.141 136.967 C 184.157 136.985,184.976 138.911,185.962 141.246 M217.196 139.702 C 225.768 147.416,233.241 153.614,240.141 158.734 L 244.393 161.889 244.557 163.740 C 245.476 174.060,243.839 190.725,241.311 196.778 C 240.351 199.078,240.490 198.988,238.983 198.293 C 235.666 196.764,231.376 198.287,230.072 201.457 C 229.574 202.669,229.726 202.679,227.630 201.292 C 221.079 196.957,212.133 184.324,203.870 167.741 L 201.914 163.815 203.765 159.963 C 206.086 155.135,209.576 147.257,211.996 141.383 C 213.017 138.905,213.929 136.905,214.023 136.938 C 214.116 136.972,215.544 138.216,217.196 139.702 M282.333 225.463 C 282.089 225.501,281.120 225.595,280.181 225.673 C 277.606 225.884,277.494 226.140,278.443 229.649 C 278.841 231.126,279.234 232.407,279.315 232.498 C 279.396 232.588,280.908 232.265,282.676 231.779 C 287.222 230.530,286.639 230.342,289.831 234.074 C 292.550 237.253,294.040 239.122,294.774 240.278 L 295.162 240.889 278.953 240.889 L 262.744 240.889 262.261 241.403 C 261.859 241.831,261.778 242.182,261.778 243.480 C 261.778 245.953,260.993 245.778,272.073 245.778 L 281.556 245.778 281.556 247.556 L 281.556 249.333 279.722 249.335 C 266.656 249.348,260.584 255.603,265.493 263.991 C 268.952 269.900,274.718 271.450,280.000 267.891 L 281.444 266.918 281.507 270.515 L 281.570 274.111 284.032 275.641 L 286.494 277.170 287.247 276.811 L 288.000 276.452 288.000 269.142 L 288.000 261.832 289.501 260.416 C 293.024 257.094,297.685 256.031,298.458 258.374 C 299.530 261.624,297.375 266.774,293.660 269.839 C 291.442 271.668,291.540 272.210,294.431 274.135 L 296.639 275.605 297.300 275.135 C 298.306 274.418,299.879 272.583,301.237 270.542 C 305.407 264.276,305.034 258.861,300.117 254.261 C 296.495 250.873,293.774 250.702,288.167 253.509 C 288.075 253.555,288.000 251.834,288.000 249.685 L 288.000 245.778 297.410 245.778 C 308.373 245.778,307.556 245.969,307.556 243.410 C 307.556 240.928,307.476 240.889,302.486 240.889 C 300.263 240.889,298.444 240.805,298.444 240.703 C 298.444 239.828,292.828 232.112,289.688 228.675 C 286.683 225.385,285.671 224.943,282.333 225.463 M301.150 227.725 C 298.032 230.437,298.033 230.619,301.193 233.130 C 303.958 235.327,303.379 235.332,306.019 233.086 C 309.041 230.514,309.043 230.310,306.072 227.874 C 304.889 226.904,303.800 226.037,303.652 225.947 C 303.484 225.845,302.535 226.519,301.150 227.725 M93.000 239.868 C 90.678 240.442,89.351 241.631,88.891 243.549 C 87.797 248.107,91.716 252.187,97.986 253.019 L 99.126 253.170 99.063 255.307 L 99.000 257.444 96.866 257.556 C 92.848 257.765,92.729 259.336,96.438 263.192 C 102.101 269.077,104.889 269.631,104.889 264.873 L 104.889 262.667 110.956 262.667 C 115.378 262.667,117.095 262.594,117.289 262.400 C 117.496 262.193,117.557 263.464,117.563 268.122 L 117.571 274.111 120.047 275.633 L 122.523 277.156 123.260 276.804 L 123.997 276.453 124.054 261.171 L 124.111 245.889 129.111 245.889 L 134.111 245.889 134.168 260.002 L 134.225 274.114 135.613 274.986 C 136.376 275.465,137.476 276.155,138.057 276.518 L 139.114 277.179 139.890 276.761 L 140.667 276.343 140.667 261.061 L 140.667 245.778 143.410 245.778 C 146.789 245.778,146.889 245.710,146.889 243.410 C 146.889 242.070,146.817 241.788,146.373 241.370 L 145.856 240.885 126.071 240.892 L 106.286 240.900 105.871 241.670 L 105.456 242.441 106.282 244.109 L 107.107 245.778 112.332 245.778 L 117.556 245.778 117.556 251.933 C 117.556 256.721,117.496 258.030,117.289 257.822 C 117.095 257.628,115.378 257.556,110.956 257.556 L 104.889 257.556 104.889 251.377 L 104.889 245.198 104.312 244.041 C 102.709 240.823,97.263 238.814,93.000 239.868 M213.716 240.900 C 208.975 242.078,208.883 242.203,210.586 245.088 C 212.197 247.817,212.494 247.931,214.949 246.768 C 220.826 243.984,226.384 245.071,224.240 248.585 C 223.240 250.225,221.284 251.166,217.680 251.739 C 216.075 251.994,214.990 252.274,214.865 252.466 C 214.283 253.362,214.394 253.745,215.804 255.685 L 217.206 257.615 219.325 257.491 C 220.547 257.420,222.099 257.163,222.991 256.883 L 224.538 256.398 225.059 257.032 C 230.818 264.040,221.766 271.812,213.823 266.679 C 210.826 264.742,207.111 258.581,207.111 255.547 C 207.111 254.268,206.297 253.057,205.556 253.234 C 203.267 253.779,203.259 254.513,205.484 259.773 C 209.297 268.785,214.957 273.789,221.324 273.774 C 229.017 273.756,233.172 268.912,231.385 262.046 C 231.012 260.613,231.004 260.442,231.315 260.568 C 232.881 261.201,234.035 261.374,236.161 261.296 L 238.444 261.211 238.444 267.599 L 238.444 273.986 239.611 274.728 C 240.253 275.136,241.404 275.854,242.170 276.324 L 243.561 277.178 244.336 276.761 L 245.111 276.343 245.111 261.061 L 245.111 245.778 247.854 245.778 C 251.261 245.778,251.333 245.726,251.333 243.295 C 251.333 240.692,252.201 240.889,240.753 240.889 L 230.985 240.889 230.573 241.585 L 230.162 242.281 231.014 244.030 L 231.867 245.778 235.156 245.778 L 238.444 245.778 238.444 250.440 L 238.444 255.102 237.611 255.521 C 234.067 257.301,230.236 257.145,227.830 255.124 L 227.326 254.700 228.422 253.252 C 233.660 246.331,224.116 238.314,213.716 240.900 M158.483 241.403 C 158.082 241.831,158.000 242.182,158.000 243.480 C 158.000 245.486,158.276 245.778,160.173 245.778 L 161.534 245.778 161.600 251.310 L 161.667 256.842 162.716 258.378 C 167.333 265.132,172.789 267.779,178.007 265.795 C 178.675 265.541,179.245 265.334,179.273 265.333 C 179.301 265.333,179.351 267.302,179.384 269.709 L 179.444 274.084 181.876 275.618 L 184.308 277.153 185.041 276.803 L 185.775 276.453 185.832 261.171 L 185.889 245.889 188.546 245.826 C 191.926 245.746,192.000 245.692,192.000 243.311 C 192.000 240.649,193.682 240.889,174.989 240.889 L 158.966 240.889 158.483 241.403 M98.938 243.946 C 99.041 244.344,99.097 245.894,99.062 247.391 L 99.000 250.111 98.333 250.049 C 95.399 249.776,93.568 246.915,94.923 244.722 C 95.928 243.096,98.587 242.582,98.938 243.946 M179.281 252.167 L 179.222 258.556 177.389 259.475 C 173.394 261.478,169.267 261.310,168.177 259.100 C 167.788 258.311,167.559 246.293,167.926 245.926 C 168.007 245.844,170.609 245.778,173.707 245.778 L 179.340 245.778 179.281 252.167 M281.556 256.211 L 281.556 258.396 280.278 259.678 C 274.626 265.347,269.035 265.884,268.511 260.807 C 268.144 257.242,271.499 255.117,279.050 254.132 C 281.749 253.780,281.556 253.619,281.556 256.211 M180.000 293.033 C 177.759 293.807,176.257 296.505,163.538 322.615 L 160.694 328.453 165.687 328.393 L 170.679 328.333 172.222 325.000 L 173.766 321.667 182.272 321.609 L 190.778 321.551 192.346 324.942 L 193.915 328.333 198.943 328.393 L 203.971 328.453 198.128 316.615 C 186.901 293.868,187.246 294.520,186.058 293.767 C 184.237 292.612,182.003 292.341,180.000 293.033 M131.152 293.526 C 127.891 294.673,127.964 294.256,128.044 311.257 L 128.111 325.515 128.801 326.367 C 129.181 326.836,129.979 327.471,130.574 327.777 L 131.656 328.333 140.439 328.333 C 150.218 328.333,150.603 328.288,153.682 326.783 C 160.579 323.412,161.296 315.228,155.039 311.303 C 154.406 310.907,153.855 310.559,153.814 310.531 C 153.772 310.502,154.380 309.846,155.164 309.073 C 160.666 303.647,157.838 296.011,149.444 293.628 C 147.301 293.020,132.820 292.939,131.152 293.526 M210.222 293.453 C 209.672 293.623,208.860 294.063,208.418 294.429 C 206.809 295.762,206.889 294.817,206.889 312.534 L 206.889 328.444 211.333 328.444 L 215.778 328.444 215.778 322.216 L 215.778 315.987 218.713 316.049 L 221.648 316.111 225.946 322.000 C 228.310 325.239,230.369 328.016,230.523 328.171 C 230.736 328.386,232.027 328.439,235.985 328.393 L 241.167 328.333 235.917 321.493 C 229.925 313.686,230.355 314.475,231.735 313.820 C 240.507 309.655,239.901 298.294,230.699 294.428 C 227.628 293.138,213.416 292.461,210.222 293.453 M260.778 293.366 C 245.169 295.355,237.512 309.253,245.886 320.394 C 249.934 325.779,256.174 328.183,266.611 328.381 L 272.667 328.495 272.667 325.025 L 272.667 321.556 267.991 321.556 C 257.410 321.556,251.778 317.812,251.778 310.778 C 251.778 303.730,257.398 300.000,268.020 300.000 L 272.667 300.000 272.667 296.556 L 272.667 293.111 267.500 293.139 C 264.658 293.155,261.633 293.257,260.778 293.366 M146.820 300.165 C 150.232 301.988,149.662 306.098,145.837 307.249 C 145.135 307.460,143.585 307.556,140.854 307.556 L 136.889 307.556 136.889 303.539 L 136.889 299.523 141.389 299.595 C 145.548 299.661,145.959 299.704,146.820 300.165 M226.128 300.338 C 229.317 301.965,229.990 305.408,227.588 307.808 C 226.060 309.334,225.095 309.556,219.960 309.556 L 215.778 309.556 215.778 304.536 L 215.778 299.516 220.294 299.591 L 224.811 299.667 226.128 300.338 M188.222 315.028 C 188.222 315.074,185.572 315.111,182.333 315.111 C 179.094 315.111,176.444 315.059,176.444 314.995 C 176.444 314.931,177.767 312.166,179.384 308.852 L 182.324 302.825 185.273 308.886 C 186.895 312.219,188.222 314.983,188.222 315.028 M147.137 314.226 C 150.935 315.281,151.544 319.579,148.154 321.391 C 147.279 321.859,146.909 321.893,142.056 321.959 L 136.889 322.030 136.889 318.015 L 136.889 314.000 141.611 314.001 C 144.208 314.002,146.695 314.103,147.137 314.226 " stroke="none" fill="#fafafb" fill-rule="evenodd"></path><path id="path1" d="M227.612 1.389 C 227.339 3.058,227.183 2.869,229.147 3.244 C 232.272 3.839,233.692 4.910,236.312 8.644 C 237.938 10.962,239.624 13.624,239.364 13.463 C 238.708 13.058,222.664 10.667,220.600 10.667 L 219.778 10.667 219.778 11.639 C 219.778 12.174,219.720 12.900,219.649 13.253 L 219.521 13.895 223.442 14.369 C 225.598 14.630,227.406 14.887,227.458 14.940 C 227.511 14.993,227.287 16.735,226.961 18.811 L 226.367 22.587 224.795 22.305 C 220.632 21.559,217.948 22.648,216.661 25.603 C 214.864 29.730,217.569 33.748,222.420 34.154 C 226.461 34.493,228.670 32.700,229.397 28.494 C 229.571 27.483,229.762 26.608,229.821 26.549 C 229.917 26.453,237.337 27.550,237.520 27.688 C 237.562 27.719,237.218 30.100,236.756 32.978 C 236.293 35.856,235.970 38.266,236.037 38.334 C 236.200 38.497,239.641 39.094,239.758 38.980 C 239.841 38.899,242.267 24.235,242.929 19.808 C 243.269 17.541,243.047 17.619,246.556 18.533 C 248.144 18.948,249.477 19.256,249.517 19.219 C 249.557 19.182,249.771 18.444,249.994 17.580 L 250.398 16.008 249.699 15.816 C 249.315 15.711,247.850 15.343,246.444 14.998 L 243.889 14.372 241.670 10.908 C 236.519 2.868,234.780 1.206,230.620 0.352 C 227.846 -0.218,227.877 -0.229,227.612 1.389 M147.293 4.839 C 146.353 5.050,145.532 5.276,145.468 5.343 C 145.360 5.454,145.944 8.012,146.118 8.190 C 146.160 8.233,147.104 8.093,148.215 7.878 C 150.690 7.400,151.892 7.603,154.399 8.923 C 155.995 9.764,161.425 13.326,161.288 13.443 C 161.252 13.474,160.172 13.720,158.889 13.989 C 153.741 15.067,140.661 18.565,139.812 19.090 C 139.508 19.278,140.412 22.222,140.774 22.222 C 140.906 22.222,142.510 21.773,144.340 21.223 C 149.266 19.744,150.917 20.109,152.101 22.940 C 153.413 26.081,150.171 30.557,147.747 28.953 C 146.417 28.073,145.474 28.143,144.514 29.190 C 143.507 30.289,142.991 29.745,150.644 35.664 C 158.388 41.654,157.514 41.198,158.535 39.777 C 159.588 38.311,159.843 38.682,155.472 35.311 L 151.611 32.333 154.750 31.588 C 156.476 31.178,159.610 30.426,161.713 29.916 L 165.537 28.989 166.574 33.328 C 167.144 35.714,167.636 37.697,167.668 37.734 C 167.727 37.801,171.394 36.902,171.502 36.794 C 171.534 36.762,170.459 32.123,169.114 26.485 C 167.768 20.847,166.667 16.153,166.667 16.054 C 166.667 15.685,179.789 13.947,184.933 13.635 L 187.333 13.489 187.333 14.494 C 187.333 15.047,187.391 15.788,187.461 16.139 L 187.589 16.778 184.183 16.778 C 177.333 16.778,173.556 19.628,173.556 24.795 C 173.556 30.830,179.751 34.071,186.917 31.787 L 188.835 31.176 188.971 32.310 C 189.046 32.934,189.108 33.833,189.109 34.308 L 189.111 35.172 191.053 35.015 C 192.121 34.928,193.039 34.812,193.094 34.758 C 193.196 34.656,191.402 14.505,191.213 13.621 C 191.108 13.134,191.127 13.132,194.776 13.066 L 198.445 13.000 198.445 23.944 L 198.444 34.889 200.444 34.889 L 202.444 34.889 202.444 23.944 L 202.443 13.000 204.525 13.070 L 206.606 13.140 206.763 11.549 C 206.961 9.537,207.307 9.704,202.715 9.597 C 193.357 9.378,179.283 10.428,168.919 12.117 C 166.715 12.476,165.649 12.566,165.475 12.408 C 164.396 11.432,156.992 6.628,155.161 5.717 C 152.449 4.368,150.411 4.140,147.293 4.839 M245.338 5.581 C 243.434 6.341,243.106 8.319,244.666 9.632 C 247.173 11.741,250.978 8.969,248.871 6.569 C 247.936 5.504,246.522 5.109,245.338 5.581 M236.419 16.343 C 237.933 16.636,239.209 16.913,239.256 16.959 C 239.342 17.046,238.226 24.277,238.106 24.407 C 238.055 24.462,230.529 23.327,230.290 23.228 C 230.230 23.203,231.337 16.176,231.460 15.808 C 231.577 15.457,232.176 15.522,236.419 16.343 M162.668 16.833 C 162.669 16.925,163.151 19.011,163.739 21.469 L 164.809 25.938 160.349 27.005 C 157.896 27.592,155.695 28.123,155.459 28.184 C 155.042 28.292,155.043 28.275,155.483 27.648 C 157.168 25.248,156.500 21.011,154.170 19.322 L 153.340 18.720 155.392 18.249 C 156.521 17.991,158.494 17.537,159.778 17.241 C 162.407 16.635,162.666 16.599,162.668 16.833 M257.576 19.704 C 257.033 21.517,256.950 21.389,259.072 22.002 L 260.820 22.507 259.403 26.198 C 257.410 31.392,257.238 33.539,258.613 36.066 C 260.506 39.545,265.963 41.702,269.396 40.328 C 269.762 40.181,269.757 40.257,269.331 41.340 C 268.163 44.302,266.889 47.734,266.889 47.917 C 266.889 48.243,270.467 49.435,270.634 49.164 C 270.713 49.035,272.464 44.483,274.525 39.047 L 278.271 29.164 281.832 30.810 C 290.058 34.612,290.884 35.236,291.068 37.781 C 291.259 40.422,289.815 41.765,286.778 41.772 C 284.318 41.777,283.617 41.500,283.322 40.401 C 283.001 39.210,282.019 38.222,281.156 38.222 C 280.062 38.222,279.081 38.489,279.184 38.757 C 279.237 38.896,280.108 42.958,281.118 47.783 C 282.129 52.608,282.989 56.595,283.029 56.643 C 283.068 56.691,283.778 56.585,284.606 56.406 C 286.412 56.016,286.367 56.691,285.028 50.135 C 284.457 47.337,284.020 45.017,284.057 44.980 C 284.095 44.942,284.872 45.017,285.785 45.145 C 291.550 45.954,295.553 42.920,294.700 38.389 C 294.591 37.808,294.547 37.333,294.603 37.333 C 294.911 37.333,305.228 43.525,306.422 44.427 L 306.955 44.830 304.799 47.969 L 302.643 51.109 300.979 49.986 C 297.349 47.536,294.502 47.630,292.070 50.279 C 289.822 52.728,289.967 55.981,292.436 58.457 C 295.977 62.008,300.037 61.683,302.922 57.617 C 303.580 56.689,304.165 56.071,304.308 56.154 C 306.140 57.207,310.642 60.530,310.518 60.737 C 310.433 60.882,309.081 62.865,307.515 65.144 C 305.948 67.423,304.667 69.347,304.667 69.420 C 304.667 69.719,307.803 71.618,307.980 71.426 C 308.119 71.277,317.208 58.026,319.653 54.410 C 319.884 54.067,325.717 58.374,325.944 59.055 C 325.979 59.159,322.906 62.872,319.115 67.308 C 315.324 71.743,312.222 75.453,312.222 75.553 C 312.222 75.830,314.856 78.049,315.084 77.964 C 315.195 77.923,318.357 74.289,322.112 69.889 C 325.866 65.489,328.974 61.850,329.019 61.802 C 329.104 61.710,329.907 62.405,332.754 65.037 L 334.508 66.657 332.865 68.158 C 327.312 73.229,326.669 74.098,326.497 76.778 C 326.145 82.266,332.045 87.850,337.170 86.878 C 338.896 86.550,340.132 85.715,343.643 82.504 L 346.858 79.564 348.548 81.590 C 349.478 82.705,350.210 83.704,350.174 83.812 C 350.138 83.920,347.159 86.708,343.554 90.007 L 337.000 96.006 335.635 94.539 L 334.270 93.073 333.135 94.147 L 332.000 95.222 333.906 97.323 C 337.094 100.835,337.440 103.008,335.079 104.689 C 331.328 107.360,325.307 101.428,324.545 94.310 C 324.461 93.528,324.359 92.889,324.318 92.889 C 324.244 92.889,322.321 93.263,321.389 93.459 C 320.750 93.593,320.734 94.347,321.321 96.778 C 322.761 102.740,326.662 107.556,331.211 108.987 C 336.567 110.671,341.771 105.669,340.026 100.514 L 339.560 99.138 340.836 97.940 C 341.537 97.282,343.311 95.653,344.778 94.321 C 346.244 92.990,348.672 90.758,350.173 89.361 C 352.564 87.136,352.935 86.867,353.173 87.184 C 353.322 87.384,354.144 88.496,355.000 89.655 C 356.823 92.126,356.511 92.000,358.015 90.877 C 359.536 89.743,359.673 90.184,356.517 86.076 C 332.890 55.328,298.669 31.274,261.287 19.139 C 257.780 18.000,258.102 17.951,257.576 19.704 M186.943 20.233 C 187.910 20.502,187.890 20.444,188.213 24.012 C 188.589 28.181,188.668 27.881,187.056 28.448 C 181.867 30.273,177.570 28.602,177.559 24.755 C 177.550 21.239,182.308 18.946,186.943 20.233 M106.111 20.878 C 100.277 22.414,96.667 25.821,96.667 29.790 C 96.667 32.291,98.686 34.790,101.230 35.436 L 102.219 35.687 98.943 37.648 C 94.437 40.346,91.115 42.515,91.113 42.762 C 91.110 43.072,92.712 45.333,92.934 45.333 C 93.041 45.333,93.999 44.749,95.064 44.035 C 97.457 42.431,104.221 38.363,104.311 38.474 C 104.348 38.519,104.772 39.315,105.254 40.244 L 106.129 41.933 105.120 42.197 C 97.206 44.272,93.771 51.082,98.288 55.741 C 101.448 59.000,106.404 58.676,111.054 54.907 L 112.442 53.782 113.358 55.613 C 113.862 56.620,114.298 57.472,114.328 57.506 C 114.375 57.559,117.514 55.854,117.748 55.650 C 117.792 55.611,116.308 52.699,114.449 49.179 L 111.068 42.779 111.900 42.060 C 116.960 37.686,122.060 41.723,119.187 47.831 C 118.857 48.532,118.630 49.138,118.683 49.177 C 118.927 49.359,121.695 50.446,121.914 50.445 C 122.050 50.445,122.423 49.863,122.742 49.152 C 126.988 39.689,118.763 32.930,110.612 39.186 L 109.558 39.995 108.673 38.235 L 107.788 36.475 109.616 35.484 C 113.224 33.529,122.204 29.223,122.338 29.385 C 122.397 29.456,125.693 35.713,129.394 42.778 C 130.866 45.589,132.100 47.926,132.136 47.971 C 132.251 48.115,135.554 46.342,135.555 46.136 C 135.555 46.028,133.457 41.958,130.893 37.093 C 128.328 32.227,126.203 28.135,126.171 27.999 C 126.138 27.863,126.861 27.440,127.778 27.057 C 128.694 26.675,129.480 26.336,129.525 26.305 C 129.601 26.250,128.425 23.111,128.328 23.111 C 127.869 23.111,116.787 28.119,112.229 30.385 C 107.029 32.971,105.992 33.412,105.229 33.363 C 100.897 33.084,98.773 29.020,101.522 26.270 C 104.816 22.976,111.476 22.612,118.200 25.359 L 120.316 26.223 122.103 25.305 C 124.451 24.098,124.438 24.118,123.190 23.556 C 117.260 20.890,110.246 19.790,106.111 20.878 M272.111 26.638 C 273.089 27.021,274.026 27.423,274.194 27.531 C 274.439 27.688,274.197 28.524,272.955 31.808 L 271.413 35.889 270.206 36.498 C 266.269 38.488,261.778 36.455,261.778 32.682 C 261.778 31.850,262.147 30.594,263.243 27.703 L 264.708 23.837 267.521 24.889 C 269.068 25.468,271.133 26.255,272.111 26.638 M225.287 25.696 C 225.861 25.852,225.840 26.732,225.206 29.029 C 224.358 32.105,219.778 31.531,219.778 28.349 C 219.778 25.861,221.983 24.799,225.287 25.696 M109.272 47.833 L 110.846 50.778 109.759 51.817 C 107.309 54.158,103.936 55.106,102.205 53.939 C 98.551 51.477,100.284 47.012,105.556 45.308 C 107.637 44.635,107.519 44.555,109.272 47.833 M316.413 51.445 C 316.660 51.679,313.721 56.467,312.545 57.745 C 312.492 57.802,306.670 53.932,306.015 53.403 C 305.962 53.361,306.893 51.884,308.085 50.122 L 310.251 46.918 313.181 49.039 C 314.793 50.205,316.247 51.288,316.413 51.445 M76.419 53.409 C 64.665 62.894,53.735 73.999,44.558 85.778 C 43.463 87.183,42.489 88.367,42.394 88.407 C 41.966 88.591,44.212 90.667,44.839 90.667 C 44.944 90.667,45.973 89.447,47.126 87.957 C 50.706 83.328,51.483 82.912,53.896 84.326 C 56.397 85.791,55.907 91.999,53.290 92.001 C 52.144 92.002,50.944 92.667,50.797 93.382 C 50.263 95.975,49.226 95.721,60.514 95.765 L 69.398 95.800 69.256 94.622 C 69.179 93.975,69.114 93.219,69.113 92.944 L 69.111 92.444 63.421 92.444 C 58.087 92.444,57.740 92.420,57.893 92.056 C 60.494 85.849,59.051 81.168,54.338 80.522 L 53.341 80.385 54.423 79.137 C 55.019 78.451,56.104 77.240,56.834 76.447 L 58.162 75.005 63.137 79.766 C 65.873 82.385,69.320 85.703,70.798 87.139 L 73.484 89.751 74.903 88.319 L 76.322 86.888 75.772 86.370 C 75.470 86.086,71.991 82.769,68.043 78.999 L 60.863 72.145 63.151 69.849 C 64.409 68.587,65.495 67.579,65.564 67.610 C 65.634 67.641,66.522 68.598,67.539 69.737 C 70.356 72.892,72.021 73.651,74.345 72.841 L 75.245 72.527 75.153 73.799 C 74.838 78.145,78.925 80.823,83.518 79.281 L 85.146 78.733 84.988 81.378 L 84.830 84.023 86.249 83.956 L 87.667 83.889 87.782 80.404 C 87.845 78.487,87.960 76.855,88.037 76.777 C 88.115 76.700,89.787 76.762,91.752 76.914 C 95.855 77.233,95.498 77.342,95.690 75.711 L 95.839 74.444 94.086 74.428 C 93.122 74.419,91.904 74.344,91.378 74.261 L 90.424 74.111 91.013 73.333 C 91.637 72.510,93.333 69.187,93.333 68.788 C 93.333 68.426,90.044 67.562,89.819 67.865 C 89.718 68.000,89.495 68.555,89.324 69.098 C 87.687 74.279,81.182 77.805,79.448 74.452 C 78.462 72.544,79.004 71.031,82.609 65.642 L 84.855 62.284 81.974 58.975 L 79.094 55.667 79.718 55.111 C 80.061 54.806,80.731 54.247,81.205 53.870 L 82.068 53.185 81.121 51.981 C 80.600 51.319,80.098 50.749,80.006 50.714 C 79.914 50.679,78.300 51.892,76.419 53.409 M299.299 52.696 C 300.917 53.783,300.911 53.743,299.711 55.444 C 298.068 57.774,296.242 58.093,294.687 56.323 C 292.158 53.442,295.958 50.453,299.299 52.696 M78.070 60.201 L 79.990 62.401 77.495 62.550 C 76.123 62.632,74.050 62.667,72.889 62.627 L 70.778 62.556 73.423 60.278 C 74.877 59.025,76.086 58.000,76.109 58.000 C 76.132 58.000,77.014 58.990,78.070 60.201 M77.956 66.580 C 75.078 70.710,73.145 70.837,69.907 67.111 L 68.266 65.222 69.411 65.092 C 70.040 65.020,72.486 64.945,74.845 64.925 L 79.135 64.889 77.956 66.580 M340.817 73.007 C 342.629 74.906,344.111 76.542,344.111 76.643 C 344.111 76.984,337.898 82.510,337.175 82.812 C 333.159 84.490,328.401 79.263,330.721 75.723 C 331.166 75.042,337.041 69.556,337.324 69.556 C 337.433 69.556,339.005 71.109,340.817 73.007 M62.446 135.327 C 62.264 135.443,62.104 135.666,62.091 135.824 C 62.029 136.578,61.985 136.683,61.780 136.557 C 61.650 136.476,61.620 136.576,61.707 136.803 C 61.806 137.060,61.769 137.132,61.596 137.025 C 61.431 136.923,61.383 136.983,61.464 137.193 C 61.533 137.374,61.391 137.721,61.147 137.964 C 60.903 138.208,60.762 138.466,60.833 138.537 C 60.905 138.608,60.840 138.667,60.691 138.667 C 60.541 138.667,60.480 138.767,60.556 138.889 C 60.631 139.011,60.581 139.111,60.444 139.111 C 60.308 139.111,60.258 139.211,60.333 139.333 C 60.409 139.456,60.375 139.556,60.257 139.556 C 60.028 139.556,59.464 140.820,59.490 141.275 C 59.498 141.427,59.428 141.503,59.334 141.445 C 59.149 141.331,58.593 142.517,58.593 143.024 C 58.593 143.194,58.522 143.333,58.436 143.333 C 57.799 143.333,52.455 157.331,50.335 164.556 C 28.012 240.624,66.114 321.204,139.157 352.400 C 147.145 355.811,159.282 359.717,165.889 361.002 C 166.256 361.073,166.806 361.179,167.111 361.238 C 167.417 361.297,168.917 361.591,170.444 361.891 C 189.570 365.649,210.466 365.636,229.889 361.852 C 233.723 361.106,233.587 361.133,234.222 360.990 C 234.528 360.922,235.028 360.816,235.333 360.754 C 251.980 357.396,274.548 347.274,289.869 336.293 C 291.202 335.337,292.702 334.267,293.202 333.914 C 313.656 319.470,333.861 293.636,344.093 268.844 C 347.754 259.973,352.179 245.791,352.781 241.000 C 352.842 240.511,352.941 239.861,353.001 239.556 C 353.061 239.250,353.165 238.700,353.233 238.333 C 353.301 237.967,353.396 237.467,353.445 237.222 C 353.494 236.978,353.595 236.428,353.669 236.000 C 353.744 235.572,353.852 234.972,353.910 234.667 C 353.967 234.361,354.057 233.811,354.109 233.444 C 354.161 233.078,354.262 232.428,354.333 232.000 C 354.462 231.228,354.505 230.919,354.781 228.778 C 355.411 223.889,355.903 218.134,355.851 216.277 C 355.833 215.625,355.907 215.165,356.020 215.235 C 356.269 215.388,356.268 213.781,356.019 212.495 C 355.916 211.962,355.921 211.493,356.031 211.425 C 356.252 211.289,356.217 202.222,355.996 202.222 C 355.917 202.222,355.858 201.697,355.864 201.056 C 355.881 199.376,355.385 193.245,355.006 190.444 C 354.964 190.139,354.870 189.389,354.796 188.778 C 354.722 188.167,354.613 187.367,354.555 187.000 C 354.497 186.633,354.397 185.983,354.333 185.556 C 354.270 185.128,354.174 184.528,354.120 184.222 C 354.067 183.917,353.960 183.267,353.884 182.778 C 353.754 181.939,353.692 181.589,353.458 180.389 C 353.224 179.181,353.090 178.306,353.087 177.949 C 353.085 177.737,352.989 177.506,352.874 177.435 C 352.759 177.364,352.726 177.062,352.801 176.764 C 352.887 176.420,352.842 176.222,352.676 176.222 C 352.519 176.222,352.469 176.051,352.550 175.796 C 352.624 175.562,352.590 175.312,352.474 175.241 C 352.359 175.169,352.316 174.911,352.380 174.666 C 352.448 174.407,352.387 174.222,352.233 174.222 C 352.071 174.222,352.024 174.051,352.111 173.778 C 352.196 173.512,352.151 173.333,352.000 173.333 C 351.853 173.333,351.804 173.156,351.883 172.908 C 351.957 172.673,351.907 172.413,351.772 172.330 C 351.636 172.246,351.578 172.041,351.642 171.874 C 351.706 171.706,351.656 171.506,351.531 171.429 C 351.405 171.352,351.355 171.152,351.420 170.985 C 351.484 170.818,351.434 170.618,351.308 170.540 C 351.183 170.463,351.133 170.263,351.197 170.096 C 351.261 169.929,351.211 169.729,351.086 169.651 C 350.961 169.574,350.912 169.371,350.978 169.200 C 351.043 169.029,350.989 168.889,350.856 168.889 C 350.723 168.889,350.666 168.694,350.728 168.455 C 350.791 168.217,350.750 167.991,350.638 167.954 C 350.527 167.916,350.412 167.562,350.384 167.166 C 350.356 166.769,350.247 166.445,350.141 166.445 C 350.035 166.445,350.000 166.244,350.064 166.000 C 350.128 165.756,350.079 165.556,349.955 165.556 C 349.832 165.556,349.788 165.406,349.858 165.222 C 349.928 165.039,349.878 164.889,349.747 164.889 C 349.616 164.889,349.566 164.739,349.636 164.556 C 349.706 164.372,349.655 164.222,349.523 164.222 C 349.390 164.222,349.334 164.022,349.398 163.778 C 349.462 163.533,349.413 163.333,349.289 163.333 C 349.165 163.333,349.121 163.183,349.191 163.000 C 349.262 162.817,349.212 162.667,349.080 162.667 C 348.949 162.667,348.899 162.517,348.969 162.333 C 349.040 162.150,348.990 162.000,348.858 162.000 C 348.727 162.000,348.674 161.856,348.742 161.681 C 348.809 161.506,348.795 161.331,348.710 161.292 C 348.517 161.205,347.219 157.322,347.256 156.944 C 347.272 156.792,347.184 156.667,347.063 156.667 C 346.941 156.667,346.899 156.517,346.969 156.333 C 347.040 156.150,346.990 156.000,346.858 156.000 C 346.727 156.000,346.677 155.850,346.747 155.667 C 346.817 155.483,346.789 155.333,346.684 155.333 C 346.508 155.333,346.153 154.417,346.124 153.889 C 346.117 153.767,345.980 153.529,345.821 153.360 C 345.661 153.192,345.583 152.917,345.647 152.749 C 345.711 152.582,345.659 152.444,345.530 152.444 C 345.401 152.444,345.338 152.320,345.388 152.169 C 345.439 152.017,345.343 151.755,345.175 151.587 C 345.007 151.419,344.907 151.169,344.952 151.032 C 344.998 150.894,344.897 150.643,344.727 150.473 C 344.558 150.304,344.480 150.006,344.555 149.811 C 344.629 149.617,344.617 149.532,344.527 149.622 C 344.308 149.840,343.740 148.464,343.924 148.165 C 344.009 148.028,343.962 147.997,343.812 148.090 C 343.574 148.237,343.468 147.929,343.495 147.169 C 343.501 147.018,343.400 146.959,343.270 147.039 C 343.119 147.133,343.092 147.036,343.196 146.765 C 343.285 146.535,343.283 146.420,343.193 146.510 C 342.975 146.729,342.406 145.353,342.591 145.054 C 342.670 144.925,342.630 144.885,342.502 144.964 C 342.238 145.128,341.932 144.512,342.124 144.202 C 342.192 144.091,342.159 144.000,342.049 144.000 C 341.758 144.000,341.302 142.898,341.476 142.616 C 341.571 142.462,341.518 142.441,341.330 142.558 C 341.114 142.691,341.075 142.637,341.182 142.358 C 341.281 142.101,341.244 142.029,341.071 142.136 C 340.897 142.243,340.861 142.171,340.960 141.914 C 341.040 141.704,341.018 141.587,340.910 141.654 C 340.673 141.800,340.392 141.154,340.568 140.869 C 340.637 140.758,340.581 140.667,340.444 140.667 C 340.308 140.667,340.253 140.575,340.322 140.463 C 340.391 140.352,340.367 140.227,340.268 140.186 C 339.913 140.038,338.424 137.102,338.578 136.853 C 338.669 136.705,338.638 136.658,338.502 136.742 C 338.222 136.915,337.937 136.281,338.145 135.946 C 338.238 135.795,338.183 135.775,337.997 135.891 C 337.781 136.024,337.741 135.971,337.849 135.692 C 337.935 135.465,337.906 135.365,337.775 135.446 C 337.654 135.521,337.556 135.469,337.556 135.330 C 337.556 135.146,336.309 135.114,332.944 135.211 C 326.795 135.388,325.897 135.389,322.778 135.219 C 320.345 135.087,319.945 135.122,318.216 135.627 C 311.652 137.541,299.786 137.564,287.444 135.687 C 285.017 135.318,285.163 135.123,286.189 137.354 C 291.921 149.809,295.035 162.094,294.231 169.074 L 293.992 171.148 294.980 172.247 C 298.785 176.479,295.952 183.190,290.222 183.514 C 287.828 183.649,285.006 182.213,284.010 180.352 C 283.815 179.988,283.572 179.809,283.373 179.886 C 282.769 180.117,278.401 179.537,275.902 178.892 C 269.546 177.253,260.964 173.031,251.333 166.803 L 249.444 165.582 249.299 169.291 C 249.043 175.866,248.876 178.267,248.441 181.667 C 247.381 189.952,245.357 196.729,242.851 200.385 C 242.228 201.293,242.218 201.348,242.560 202.009 C 243.130 203.110,243.035 205.751,242.375 207.195 C 239.815 212.786,231.475 212.385,229.646 206.581 C 229.287 205.444,229.216 205.373,227.692 204.612 C 219.793 200.670,210.094 188.893,200.431 171.510 L 199.232 169.354 198.875 169.955 C 198.678 170.285,197.485 172.406,196.224 174.667 C 187.539 190.234,178.116 201.595,171.122 204.931 C 170.274 205.336,169.574 205.767,169.566 205.889 C 169.469 207.356,167.435 209.773,165.575 210.630 C 160.404 213.015,154.347 207.728,156.191 202.439 C 156.416 201.793,156.356 201.600,155.479 200.145 C 151.738 193.940,149.111 180.858,149.111 168.435 L 149.111 166.017 145.611 168.310 C 133.072 176.524,122.704 180.889,115.734 180.889 C 114.435 180.889,114.079 180.976,113.470 181.440 C 107.882 185.702,99.894 178.417,103.601 172.439 C 104.045 171.722,104.082 171.354,104.109 167.333 C 104.164 159.529,107.169 148.395,112.086 137.787 C 112.790 136.269,113.146 136.354,108.760 136.995 C 98.327 138.518,91.315 138.769,84.000 137.880 C 82.251 137.668,78.560 136.712,77.249 136.132 C 76.197 135.667,75.882 135.614,75.381 135.816 C 74.269 136.263,71.516 136.140,70.473 135.596 C 69.462 135.070,63.187 134.859,62.446 135.327 M118.570 135.613 C 118.389 135.889,117.525 137.614,116.649 139.446 C 110.605 152.086,107.855 160.357,107.207 167.838 L 107.058 169.565 107.655 169.338 C 111.771 167.773,116.332 171.221,116.333 175.899 L 116.333 177.909 118.222 177.513 C 124.827 176.128,133.326 171.619,144.333 163.661 C 149.590 159.860,149.111 160.501,149.114 157.269 C 149.117 153.795,149.678 143.570,150.110 139.111 C 150.293 137.217,150.443 135.542,150.444 135.389 C 150.444 135.169,147.142 135.111,134.672 135.111 L 118.899 135.111 118.570 135.613 M155.807 139.167 C 155.397 142.623,155.038 146.337,154.323 154.527 L 154.190 156.053 154.817 155.596 C 157.185 153.871,169.971 142.506,175.444 137.262 L 177.667 135.132 166.978 135.122 L 156.289 135.111 155.807 139.167 M189.778 135.342 C 189.778 135.468,190.672 137.794,191.764 140.510 C 193.477 144.766,194.613 147.448,198.350 156.053 C 199.085 157.747,199.141 157.791,199.483 156.944 C 199.619 156.608,200.728 153.983,201.947 151.111 C 203.899 146.511,207.676 136.995,208.099 135.611 L 208.252 135.111 199.015 135.111 C 192.783 135.111,189.778 135.186,189.778 135.342 M221.333 135.849 C 227.466 141.634,234.382 147.694,241.503 153.521 L 244.005 155.569 243.888 154.396 C 243.823 153.750,243.566 151.122,243.318 148.556 C 243.069 145.989,242.621 141.972,242.322 139.630 C 242.022 137.288,241.778 135.313,241.778 135.241 C 241.778 135.170,237.003 135.112,231.167 135.113 L 220.556 135.115 221.333 135.849 M247.556 135.168 C 247.556 135.199,247.752 137.124,247.992 139.446 C 248.518 144.533,249.038 151.516,249.245 156.273 L 249.397 159.768 253.421 162.632 C 265.444 171.191,275.254 176.145,281.444 176.784 L 282.778 176.921 283.151 175.357 C 283.953 171.993,286.339 170.016,289.611 170.005 L 291.111 170.000 291.107 168.056 C 291.092 161.541,288.199 152.515,282.170 140.167 L 279.701 135.111 263.628 135.111 C 254.788 135.111,247.556 135.137,247.556 135.168 M213.245 138.626 C 211.687 142.761,206.767 153.960,203.873 159.962 L 202.016 163.814 204.126 168.030 C 212.596 184.953,220.830 196.532,227.815 201.344 L 229.429 202.456 229.856 201.617 C 231.880 197.636,235.992 196.536,240.256 198.833 C 240.336 198.876,240.803 197.882,241.292 196.623 C 243.767 190.263,244.981 179.190,244.560 166.834 L 244.396 162.017 241.142 159.621 C 234.575 154.782,224.479 146.470,217.409 140.080 C 215.962 138.771,214.578 137.525,214.333 137.310 C 213.897 136.926,213.877 136.952,213.245 138.626 M180.862 140.041 C 172.668 147.618,164.333 154.657,156.748 160.405 C 153.524 162.848,153.784 162.075,153.782 169.222 C 153.776 182.385,154.955 191.117,157.597 197.500 C 158.346 199.311,158.278 199.255,159.077 198.705 C 162.301 196.488,167.073 197.770,168.854 201.333 L 169.516 202.659 170.814 201.792 C 177.409 197.385,185.875 185.223,194.260 168.111 C 196.621 163.292,196.636 164.378,194.138 159.387 C 191.537 154.189,189.016 148.700,186.224 142.152 L 184.061 137.082 180.862 140.041 M286.846 225.828 C 288.940 227.100,297.011 237.299,298.206 240.182 L 298.498 240.889 302.513 240.889 C 307.472 240.889,307.556 240.931,307.556 243.410 C 307.556 245.969,308.373 245.778,297.410 245.778 L 288.000 245.778 288.000 249.657 L 288.000 253.537 289.799 252.602 C 297.484 248.606,306.549 257.415,303.592 266.005 C 302.458 269.299,299.059 274.248,297.269 275.213 L 296.527 275.612 294.380 274.195 C 291.607 272.365,291.427 271.607,293.389 270.029 C 297.210 266.957,299.384 262.037,298.433 258.614 C 297.703 255.983,293.099 257.042,289.167 260.744 L 288.000 261.842 288.000 269.147 L 288.000 276.452 287.227 276.820 L 286.455 277.189 284.061 275.723 L 281.667 274.258 281.606 270.558 L 281.545 266.859 280.463 267.653 C 274.473 272.050,267.162 269.416,264.398 261.864 C 261.759 254.656,267.034 249.890,278.222 249.371 L 281.444 249.222 281.444 247.556 L 281.444 245.889 272.015 245.831 C 260.992 245.763,261.778 245.946,261.778 243.449 C 261.778 242.072,261.847 241.790,262.291 241.374 L 262.803 240.892 278.980 240.835 L 295.158 240.778 293.561 238.689 C 291.008 235.349,287.264 231.111,286.748 230.977 C 286.487 230.909,284.817 231.261,283.037 231.760 C 281.256 232.259,279.663 232.667,279.496 232.667 C 279.209 232.667,277.766 227.983,277.774 227.080 C 277.790 225.452,284.666 224.503,286.846 225.828 M305.904 227.684 C 309.060 230.280,309.072 230.509,306.181 233.011 C 305.058 233.983,304.010 234.857,303.851 234.953 C 303.662 235.069,302.769 234.500,301.238 233.287 C 298.013 230.731,298.004 230.465,301.060 227.735 C 303.678 225.395,303.127 225.401,305.904 227.684 M376.547 232.144 C 376.465 232.615,376.314 233.397,376.211 233.883 C 376.109 234.368,376.046 234.787,376.072 234.812 C 376.106 234.847,387.893 236.966,390.422 237.392 C 390.592 237.421,387.160 239.088,382.795 241.098 C 374.312 245.002,373.778 245.339,373.778 246.782 C 373.778 248.568,373.705 248.543,384.556 250.472 C 395.524 252.423,394.559 252.388,394.761 250.838 C 394.845 250.194,394.966 249.454,395.030 249.194 C 395.132 248.776,395.022 248.704,394.073 248.564 C 393.483 248.477,390.258 247.914,386.906 247.314 C 383.554 246.713,380.704 246.222,380.572 246.222 C 380.441 246.222,382.483 245.239,385.111 244.037 C 396.364 238.892,396.453 238.848,397.014 238.112 C 397.718 237.190,397.698 236.486,396.944 235.590 L 396.333 234.863 387.111 233.211 C 382.039 232.303,377.620 231.498,377.292 231.423 C 376.740 231.297,376.684 231.352,376.547 232.144 M2.080 232.278 C 2.741 235.743,2.481 235.402,4.824 235.883 C 5.898 236.104,6.926 236.362,7.107 236.458 C 7.338 236.579,7.671 238.028,8.229 241.345 L 9.023 246.060 7.478 247.050 C 6.628 247.594,5.692 248.150,5.397 248.284 C 5.011 248.460,4.893 248.656,4.973 248.986 C 5.035 249.238,5.201 250.119,5.343 250.944 C 5.485 251.769,5.632 252.444,5.670 252.444 C 5.938 252.444,23.597 241.043,24.167 240.502 C 25.106 239.610,25.170 238.368,24.329 237.368 C 23.710 236.633,25.070 237.008,9.622 233.318 C 0.993 231.257,1.909 231.383,2.080 232.278 M15.281 238.091 C 17.571 238.631,19.636 239.106,19.869 239.147 C 20.153 239.197,18.940 240.085,16.207 241.826 C 13.463 243.574,12.075 244.341,11.981 244.159 C 11.905 244.011,11.619 242.539,11.347 240.889 C 11.075 239.239,10.804 237.714,10.744 237.500 C 10.601 236.981,10.523 236.971,15.281 238.091 M98.045 239.801 C 100.594 240.333,103.163 241.959,104.273 243.744 C 104.760 244.527,104.782 244.783,104.889 251.000 L 105.000 257.444 111.278 257.556 L 117.556 257.667 117.556 251.833 L 117.556 246.000 115.167 245.986 C 113.853 245.978,111.486 245.953,109.908 245.930 L 107.038 245.889 106.210 244.086 L 105.383 242.283 105.821 241.591 L 106.259 240.900 126.169 240.892 L 146.079 240.885 146.595 241.370 C 147.398 242.125,147.350 244.504,146.514 245.377 C 145.926 245.991,145.878 246.000,143.292 246.000 L 140.667 246.000 140.667 261.226 L 140.667 276.452 139.883 276.826 C 138.984 277.254,139.167 277.328,135.833 275.187 L 134.000 274.010 134.000 260.005 L 134.000 246.000 129.000 246.000 L 124.000 246.000 124.000 261.217 L 124.000 276.433 123.313 276.788 C 122.482 277.218,122.486 277.219,119.748 275.515 L 117.556 274.151 117.556 268.353 L 117.556 262.556 111.278 262.667 L 105.000 262.778 104.889 265.074 C 104.688 269.224,102.859 269.204,98.209 265.002 C 92.728 260.046,92.254 257.556,96.794 257.556 L 98.889 257.556 98.889 255.333 L 98.889 253.111 98.273 253.111 C 92.044 253.111,86.853 246.855,89.285 242.278 C 90.470 240.048,94.188 238.997,98.045 239.801 M221.088 240.564 C 228.627 242.341,232.251 249.166,228.097 253.764 L 227.324 254.619 227.992 255.181 C 230.147 256.995,234.205 257.150,237.425 255.541 L 238.444 255.032 238.444 250.405 L 238.444 245.778 235.114 245.778 L 231.783 245.778 230.910 244.041 L 230.036 242.304 230.484 241.597 L 230.933 240.889 240.730 240.889 C 252.258 240.889,251.556 240.732,251.556 243.302 C 251.556 245.594,251.280 245.778,247.850 245.778 L 245.111 245.778 245.111 261.105 L 245.111 276.433 244.455 276.772 C 243.533 277.249,243.600 277.271,240.893 275.611 L 238.446 274.111 238.445 267.651 L 238.444 261.191 236.833 261.390 C 235.015 261.614,233.880 261.514,232.346 260.993 C 231.043 260.551,231.057 260.535,231.450 262.010 C 233.345 269.131,228.788 274.095,220.699 273.724 C 213.978 273.416,208.360 267.841,204.584 257.732 C 203.437 254.662,203.490 253.841,204.866 253.370 C 206.278 252.886,206.944 253.564,207.184 255.727 C 208.050 263.546,215.887 269.893,222.171 267.863 C 226.712 266.397,228.345 260.341,225.056 257.169 L 224.333 256.472 223.111 256.885 C 221.910 257.291,218.986 257.782,217.817 257.774 C 217.325 257.771,216.974 257.425,215.778 255.766 C 213.632 252.790,213.871 252.276,217.676 251.679 C 221.753 251.040,224.118 249.644,224.546 247.624 C 225.137 244.833,220.073 244.475,214.667 246.926 C 212.482 247.917,212.064 247.764,210.758 245.493 C 210.181 244.488,209.568 243.450,209.396 243.184 C 208.327 241.534,216.979 239.595,221.088 240.564 M191.708 241.372 C 192.151 241.788,192.222 242.072,192.222 243.413 C 192.222 245.816,191.966 246.000,188.628 246.000 L 186.000 246.000 186.000 261.174 L 186.000 276.349 185.355 276.730 C 184.432 277.275,184.396 277.264,181.742 275.614 L 179.333 274.117 179.333 269.729 L 179.333 265.340 178.167 265.826 C 177.194 266.232,176.557 266.314,174.333 266.323 L 171.667 266.333 170.000 265.451 C 168.048 264.417,164.515 261.056,162.758 258.561 L 161.667 257.011 161.600 251.506 L 161.534 246.000 160.281 246.000 C 158.433 246.000,158.000 245.521,158.000 243.476 C 158.000 242.182,158.082 241.830,158.483 241.403 L 158.966 240.889 175.080 240.889 L 191.194 240.889 191.708 241.372 M96.799 243.343 C 93.622 244.293,93.814 248.503,97.087 249.658 C 98.954 250.317,98.889 250.421,98.889 246.786 C 98.889 242.981,98.753 242.758,96.799 243.343 M23.944 245.710 C 23.242 245.896,22.668 246.112,22.669 246.191 C 22.670 246.269,23.002 247.609,23.407 249.169 L 24.142 252.004 23.349 252.212 C 22.913 252.325,19.106 253.290,14.889 254.356 C 10.672 255.421,7.133 256.371,7.025 256.466 C 6.875 256.597,7.430 259.539,7.682 259.953 C 7.714 260.005,23.273 256.068,24.698 255.648 C 25.000 255.560,25.189 256.057,25.800 258.548 C 26.387 260.936,26.609 261.536,26.881 261.462 C 29.853 260.647,29.808 260.668,29.643 260.157 C 29.556 259.887,28.666 256.467,27.665 252.556 C 26.403 247.627,25.749 245.433,25.533 245.409 C 25.362 245.389,24.647 245.525,23.944 245.710 M167.783 252.056 C 167.788 259.061,167.919 259.696,169.493 260.384 C 171.535 261.276,175.714 260.622,178.146 259.031 L 179.222 258.327 179.281 252.164 L 179.340 246.000 173.559 246.000 L 167.778 246.000 167.783 252.056 M377.058 253.098 C 372.185 254.656,368.769 260.120,369.568 265.081 C 371.484 276.982,387.996 277.782,390.993 266.120 C 393.080 257.999,385.088 250.531,377.058 253.098 M278.000 254.328 C 271.099 255.496,268.236 257.375,268.541 260.536 C 269.047 265.781,274.819 265.318,280.278 259.595 L 281.556 258.255 281.556 256.128 L 281.556 254.000 280.611 254.023 C 280.092 254.035,278.917 254.173,278.000 254.328 M383.171 256.889 C 388.169 258.759,389.566 265.212,385.747 268.785 C 380.529 273.665,371.782 269.212,372.905 262.248 C 373.652 257.612,378.433 255.116,383.171 256.889 M21.000 262.675 C 12.538 264.410,9.225 274.551,15.051 280.889 C 20.897 287.248,31.465 284.530,33.660 276.102 C 35.626 268.553,28.612 261.115,21.000 262.675 M26.621 266.857 C 33.693 270.527,30.880 280.556,22.778 280.556 C 14.171 280.556,12.665 269.572,20.854 266.519 C 22.129 266.044,25.426 266.237,26.621 266.857 M365.384 274.347 L 364.710 276.027 365.188 276.213 C 365.451 276.315,369.856 278.062,374.976 280.094 C 380.096 282.126,384.311 283.761,384.341 283.727 C 384.939 283.069,385.876 280.222,385.495 280.222 C 385.339 280.222,380.931 278.522,375.699 276.444 C 370.468 274.367,366.158 272.667,366.123 272.667 C 366.088 272.667,365.756 273.423,365.384 274.347 M360.968 284.505 L 357.603 291.667 359.077 292.397 C 359.887 292.798,360.577 293.048,360.610 292.952 C 360.643 292.856,361.244 291.607,361.946 290.177 L 363.222 287.576 371.182 291.344 C 375.560 293.416,379.210 295.107,379.293 295.102 C 379.457 295.093,380.940 291.977,380.832 291.869 C 380.770 291.807,370.360 286.886,366.508 285.097 L 364.682 284.250 365.789 281.958 C 366.398 280.698,366.994 279.493,367.115 279.281 C 367.235 279.069,367.333 278.839,367.333 278.771 C 367.333 278.676,364.520 277.316,364.368 277.338 C 364.349 277.341,362.819 280.566,360.968 284.505 M27.362 286.556 C 22.673 289.050,18.779 291.147,18.710 291.216 C 18.577 291.349,20.027 294.217,20.228 294.220 C 20.342 294.222,28.123 290.139,31.264 288.429 L 32.862 287.559 28.323 293.724 C 23.417 300.386,23.318 300.563,23.851 301.680 C 24.560 303.168,25.317 303.214,38.735 302.590 L 40.692 302.499 34.624 305.715 C 31.286 307.484,28.457 309.026,28.337 309.140 C 28.176 309.294,29.456 312.218,29.686 312.222 C 29.985 312.227,47.122 302.939,47.389 302.627 C 48.180 301.703,47.569 299.634,46.339 299.073 C 45.926 298.885,43.626 298.905,37.172 299.152 C 32.433 299.334,28.532 299.467,28.503 299.448 C 28.440 299.407,28.609 299.174,34.279 291.463 C 39.480 284.389,39.582 284.145,37.964 282.633 C 36.817 281.562,36.602 281.642,27.362 286.556 M185.251 293.174 C 187.057 294.123,187.157 294.293,193.827 307.762 C 197.372 314.921,201.106 322.503,202.126 324.611 L 203.980 328.444 198.934 328.441 L 193.889 328.437 192.323 325.052 L 190.757 321.667 182.306 321.609 L 173.854 321.550 172.299 324.942 L 170.744 328.333 165.705 328.393 C 162.934 328.426,160.667 328.417,160.667 328.373 C 160.667 327.848,177.425 294.646,177.919 294.194 C 179.574 292.676,183.315 292.156,185.251 293.174 M150.351 293.838 C 158.128 296.446,160.492 304.071,155.114 309.201 L 153.836 310.420 155.012 311.201 C 162.075 315.891,160.278 324.813,151.684 327.724 L 149.889 328.332 140.667 328.333 C 130.524 328.333,130.821 328.370,129.258 326.919 C 127.947 325.702,128.000 326.383,128.000 310.764 L 128.000 296.394 128.492 295.519 C 128.982 294.646,129.932 293.905,131.212 293.398 C 131.707 293.202,134.125 293.144,140.222 293.183 L 148.556 293.236 150.351 293.838 M227.732 293.464 C 239.170 295.818,241.849 308.510,232.014 313.752 C 231.074 314.254,230.705 314.564,230.838 314.741 C 231.553 315.697,235.108 320.348,237.956 324.056 L 241.329 328.444 235.942 328.443 L 230.556 328.442 226.032 322.221 L 221.508 316.000 218.643 316.000 L 215.778 316.000 215.778 322.222 L 215.778 328.444 211.333 328.444 L 206.889 328.444 206.889 312.430 C 206.889 301.027,206.961 296.275,207.138 295.930 C 207.731 294.777,209.034 293.747,210.443 293.319 C 211.606 292.965,225.890 293.085,227.732 293.464 M272.667 296.530 L 272.667 299.949 267.389 300.058 C 262.815 300.152,261.889 300.232,260.446 300.655 C 248.811 304.063,249.034 317.715,260.778 321.007 C 261.786 321.290,263.397 321.408,267.389 321.494 L 272.667 321.607 272.667 325.025 L 272.667 328.444 267.389 328.444 C 261.605 328.443,259.328 328.189,256.184 327.198 C 237.429 321.283,237.995 299.154,257.030 294.086 C 260.095 293.270,261.193 293.168,267.167 293.138 L 272.667 293.111 272.667 296.530 M354.931 296.523 C 353.544 297.293,353.230 298.788,354.167 300.165 C 355.245 301.749,366.996 317.324,367.111 317.321 C 367.342 317.315,369.103 313.910,368.936 313.791 C 368.626 313.570,366.222 310.374,366.222 310.182 C 366.222 310.030,370.778 302.060,371.005 301.815 C 371.070 301.745,373.911 302.115,375.141 302.355 C 375.650 302.454,378.080 299.294,377.726 298.994 C 377.667 298.944,355.769 296.214,355.556 296.230 C 355.494 296.234,355.213 296.366,354.931 296.523 M136.889 303.562 L 136.889 307.603 141.167 307.524 C 147.143 307.413,148.974 306.478,148.974 303.536 C 148.974 300.576,147.250 299.693,141.278 299.594 L 136.889 299.522 136.889 303.562 M215.778 304.686 L 215.778 309.595 220.278 309.517 C 226.808 309.403,228.889 308.232,228.889 304.668 C 228.889 300.979,226.740 299.778,220.141 299.778 L 215.778 299.778 215.778 304.686 M367.506 301.141 C 367.626 301.186,366.869 302.691,365.824 304.486 L 363.924 307.750 362.482 305.820 C 361.688 304.758,360.372 302.988,359.557 301.887 L 358.075 299.885 362.682 300.472 C 365.215 300.795,367.386 301.096,367.506 301.141 M179.407 308.935 L 176.521 314.778 182.182 314.837 C 185.296 314.870,187.890 314.851,187.946 314.795 C 188.041 314.700,182.766 303.659,182.440 303.269 C 182.359 303.172,180.994 305.722,179.407 308.935 M45.214 306.512 C 41.535 308.270,40.925 311.515,43.392 316.201 C 45.070 319.388,44.882 321.000,42.743 321.757 C 40.944 322.393,40.185 321.815,37.245 317.566 C 36.057 315.849,35.014 314.444,34.928 314.444 C 34.720 314.444,32.444 315.981,32.444 316.121 C 32.444 316.506,37.566 323.481,38.242 324.015 C 40.699 325.962,43.910 325.876,46.274 323.800 C 48.496 321.849,48.591 319.311,46.591 315.325 C 44.812 311.781,45.011 310.225,47.330 309.530 C 48.972 309.038,49.810 309.704,52.545 313.677 L 54.909 317.112 56.224 316.185 L 57.538 315.258 56.806 314.240 C 56.404 313.680,55.310 312.110,54.376 310.750 C 51.274 306.234,48.489 304.946,45.214 306.512 M347.467 308.462 C 346.905 309.186,346.444 309.820,346.444 309.870 C 346.444 309.921,347.519 310.754,348.833 311.722 C 350.147 312.690,352.822 314.662,354.778 316.105 L 358.333 318.728 352.333 318.583 C 349.033 318.503,345.021 318.376,343.417 318.301 L 340.500 318.165 339.672 318.924 C 338.516 319.984,338.496 321.141,339.618 322.110 C 340.889 323.207,354.871 333.444,355.100 333.444 C 355.310 333.444,357.111 331.157,357.111 330.890 C 357.111 330.813,355.490 329.556,353.508 328.097 C 351.527 326.638,348.852 324.659,347.564 323.699 L 345.222 321.953 347.333 322.084 C 348.494 322.157,352.596 322.282,356.448 322.363 L 363.452 322.509 364.171 321.691 C 365.681 319.971,365.351 319.500,359.778 315.426 C 357.639 313.862,354.224 311.360,352.189 309.864 L 348.489 307.145 347.467 308.462 M136.889 318.000 L 136.889 322.036 141.944 321.951 C 147.496 321.857,147.987 321.757,149.304 320.440 C 150.686 319.058,150.675 316.932,149.279 315.535 C 147.966 314.223,147.505 314.129,141.944 314.042 L 136.889 313.964 136.889 318.000 M56.418 330.575 C 52.094 334.313,48.533 337.438,48.506 337.519 C 48.478 337.600,48.978 338.250,49.617 338.963 L 50.778 340.259 58.667 333.427 C 63.006 329.670,66.556 326.517,66.556 326.421 C 66.556 326.203,64.607 323.803,64.418 323.789 C 64.342 323.783,60.742 326.837,56.418 330.575 M330.024 330.172 C 329.365 330.872,327.417 332.872,325.696 334.616 C 321.296 339.074,320.997 337.990,328.783 345.796 C 335.098 352.128,335.728 352.667,336.810 352.667 C 337.360 352.667,346.506 344.004,346.422 343.563 C 346.409 343.498,345.926 343.021,345.349 342.504 L 344.298 341.564 340.649 345.224 L 337.000 348.885 334.880 346.789 L 332.760 344.694 336.202 341.233 L 339.644 337.773 338.664 336.775 C 337.378 335.465,337.699 335.307,333.867 339.133 L 330.507 342.488 328.351 340.427 L 326.195 338.366 329.925 334.631 L 333.655 330.896 332.670 329.892 C 331.441 328.640,331.470 328.637,330.024 330.172 M67.958 329.621 C 67.630 329.768,64.289 333.020,60.535 336.847 L 53.709 343.805 54.905 345.017 L 56.102 346.228 61.341 340.992 L 66.580 335.756 65.039 344.473 C 63.356 353.987,63.357 353.957,64.647 354.826 C 66.108 355.811,65.931 355.941,73.715 348.170 L 80.891 341.007 79.667 339.783 L 78.444 338.560 73.202 343.780 C 68.863 348.101,67.981 348.885,68.086 348.333 C 68.821 344.471,70.889 332.159,70.889 331.650 C 70.889 330.126,69.294 329.022,67.958 329.621 M318.291 341.623 C 316.805 342.823,316.690 342.485,319.892 346.324 C 321.417 348.151,322.590 349.717,322.499 349.802 C 321.079 351.136,315.219 355.747,315.107 355.618 C 315.023 355.523,313.737 353.969,312.249 352.165 L 309.543 348.885 308.231 349.943 C 307.510 350.524,306.913 351.077,306.904 351.171 C 306.886 351.378,319.668 366.913,320.101 367.209 C 320.426 367.432,322.974 365.468,322.843 365.096 C 322.807 364.994,321.592 363.465,320.142 361.697 C 318.693 359.930,317.508 358.414,317.510 358.327 C 317.519 357.873,324.773 352.235,325.009 352.499 C 325.146 352.652,326.390 354.153,327.773 355.833 C 329.156 357.514,330.379 358.889,330.490 358.889 C 330.762 358.889,333.083 357.048,333.099 356.820 C 333.119 356.521,319.941 340.666,319.683 340.679 C 319.552 340.685,318.925 341.110,318.291 341.623 M87.236 347.507 C 86.999 347.839,86.580 348.413,86.304 348.783 L 85.802 349.455 88.229 351.227 C 89.564 352.202,90.656 353.050,90.654 353.111 C 90.652 353.172,88.305 356.372,85.438 360.222 C 82.570 364.072,80.229 367.322,80.235 367.444 C 80.260 367.947,82.934 369.607,83.218 369.297 C 83.368 369.133,85.764 365.925,88.543 362.167 C 91.321 358.408,93.641 355.333,93.697 355.333 C 93.753 355.333,94.769 356.065,95.955 356.959 C 97.141 357.853,98.225 358.652,98.364 358.734 C 98.513 358.823,98.993 358.386,99.531 357.674 C 100.407 356.513,100.635 356.001,100.278 355.999 C 100.186 355.998,97.361 353.951,94.000 351.449 C 87.084 346.302,87.798 346.718,87.236 347.507 M299.667 356.022 C 296.244 358.344,293.297 360.331,293.117 360.437 C 292.847 360.595,292.942 360.856,293.662 361.926 C 294.142 362.639,294.556 363.255,294.581 363.294 C 294.605 363.334,295.758 362.610,297.141 361.686 C 299.104 360.374,299.712 360.066,299.910 360.280 C 300.049 360.432,302.242 363.656,304.782 367.444 C 307.323 371.233,309.481 374.423,309.578 374.533 C 309.750 374.727,312.674 372.984,312.660 372.696 C 312.656 372.619,310.420 369.256,307.691 365.222 L 302.729 357.889 305.198 356.247 C 306.556 355.344,307.696 354.581,307.732 354.551 C 307.824 354.478,306.137 351.798,306.000 351.799 C 305.939 351.799,303.089 353.699,299.667 356.022 M95.889 365.837 C 92.956 370.742,90.529 374.814,90.497 374.885 C 90.430 375.037,93.163 376.671,93.464 376.659 C 93.576 376.654,94.654 375.004,95.862 372.992 C 97.069 370.980,98.115 369.333,98.186 369.333 C 98.464 369.333,106.222 374.066,106.222 374.236 C 106.222 374.335,105.211 376.078,103.975 378.109 C 102.739 380.140,101.764 381.825,101.808 381.854 C 102.773 382.484,104.670 383.553,104.811 383.547 C 104.957 383.540,115.486 366.201,115.719 365.584 C 115.770 365.451,113.242 363.948,112.778 363.835 C 112.656 363.805,111.556 365.477,110.333 367.551 C 109.111 369.625,108.060 371.299,107.998 371.272 C 107.935 371.245,106.073 370.131,103.861 368.797 L 99.837 366.371 101.842 363.019 C 102.944 361.175,103.980 359.509,104.145 359.316 C 104.310 359.123,104.444 358.909,104.444 358.841 C 104.444 358.721,101.440 356.873,101.294 356.904 C 101.255 356.913,98.822 360.933,95.889 365.837 M280.173 367.454 C 274.930 370.093,274.360 370.518,274.395 371.760 C 274.409 372.233,282.579 389.062,283.029 389.541 C 283.118 389.636,286.222 388.202,286.222 388.066 C 286.222 388.027,285.372 386.297,284.333 384.222 C 283.294 382.147,282.444 380.371,282.444 380.275 C 282.444 380.180,284.245 379.205,286.446 378.110 C 288.647 377.015,290.419 376.068,290.386 376.004 C 290.352 375.941,290.030 375.314,289.671 374.611 C 288.887 373.076,289.303 373.009,284.485 375.437 L 280.858 377.265 279.539 374.634 L 278.220 372.003 282.499 369.866 C 284.852 368.690,286.809 367.699,286.848 367.664 C 286.969 367.555,285.558 364.888,285.386 364.901 C 285.296 364.907,282.950 366.056,280.173 367.454 M118.333 367.535 C 117.537 367.876,117.218 368.458,113.475 376.393 C 109.616 384.573,109.429 385.140,110.278 386.091 C 110.690 386.553,121.531 391.911,121.670 391.722 C 121.844 391.488,122.881 389.029,122.828 388.976 C 122.791 388.940,120.715 387.940,118.214 386.755 C 115.713 385.570,113.641 384.582,113.609 384.558 C 113.578 384.534,114.128 383.311,114.832 381.840 L 116.111 379.165 120.505 381.232 L 124.899 383.300 125.561 381.990 C 125.925 381.269,126.222 380.640,126.222 380.593 C 126.222 380.545,124.238 379.576,121.813 378.439 L 117.403 376.372 118.636 373.741 C 119.314 372.295,119.954 371.111,120.059 371.111 C 120.164 371.111,122.253 372.061,124.701 373.222 C 129.966 375.719,129.351 375.622,130.015 374.062 C 130.312 373.363,130.589 372.713,130.630 372.617 C 130.670 372.522,130.604 372.444,130.482 372.444 C 130.360 372.444,127.928 371.337,125.077 369.984 C 119.728 367.445,119.088 367.212,118.333 367.535 M262.667 374.863 C 256.029 377.010,252.928 383.969,255.877 390.102 C 260.241 399.174,273.787 397.850,276.326 388.103 C 278.435 380.008,270.511 372.327,262.667 374.863 M140.778 378.301 C 139.606 378.847,138.129 380.299,137.762 381.263 C 136.283 385.153,137.922 387.999,142.738 389.905 C 145.508 391.001,146.426 392.546,145.441 394.452 C 144.597 396.083,143.256 396.126,138.667 394.667 C 134.319 393.285,134.601 393.271,134.109 394.896 C 133.602 396.571,133.370 396.394,137.889 397.794 C 144.420 399.819,147.007 399.306,148.804 395.633 C 150.527 392.112,149.062 389.315,144.337 387.103 C 141.015 385.547,140.165 384.191,141.322 382.292 C 142.290 380.705,143.426 380.688,148.185 382.189 C 150.181 382.818,151.895 383.333,151.994 383.333 C 152.185 383.333,153.018 380.495,152.867 380.355 C 152.818 380.309,150.996 379.711,148.818 379.025 C 144.164 377.559,142.658 377.423,140.778 378.301 M268.113 378.242 C 271.310 379.438,273.539 383.460,272.893 386.865 C 271.227 395.650,258.947 394.459,258.493 385.468 C 258.219 380.072,263.135 376.380,268.113 378.242 M155.839 381.772 C 155.445 382.012,155.068 382.437,155.000 382.715 C 154.203 385.995,151.333 399.565,151.333 400.051 C 151.333 400.875,151.657 401.475,152.283 401.811 C 152.809 402.093,164.276 404.673,164.416 404.541 C 164.548 404.418,165.141 401.733,165.056 401.648 C 165.013 401.606,162.834 401.111,160.212 400.548 C 157.590 399.986,155.332 399.490,155.194 399.447 C 154.991 399.383,156.018 393.902,156.281 393.646 C 156.310 393.619,158.410 394.052,160.948 394.610 C 163.485 395.167,165.622 395.563,165.697 395.489 C 165.989 395.197,166.423 392.791,166.208 392.658 C 166.088 392.584,163.939 392.086,161.432 391.553 C 158.673 390.966,156.907 390.490,156.957 390.347 C 157.003 390.217,157.279 388.936,157.570 387.500 C 157.988 385.436,158.176 384.889,158.465 384.889 C 158.667 384.889,160.869 385.339,163.358 385.889 C 165.847 386.439,167.999 386.889,168.139 386.889 C 168.370 386.889,169.057 384.062,168.860 383.921 C 168.746 383.838,157.037 381.333,156.771 381.334 C 156.653 381.335,156.233 381.532,155.839 381.772 M236.778 382.680 C 228.357 384.396,228.952 383.154,231.207 394.307 C 233.179 404.061,233.117 403.846,234.145 404.334 C 234.815 404.652,246.474 402.711,246.990 402.196 C 247.103 402.082,246.518 399.555,246.336 399.373 C 246.259 399.296,243.960 399.692,241.226 400.252 C 236.296 401.262,236.254 401.267,236.145 400.802 C 235.798 399.319,235.087 395.509,235.149 395.462 C 235.189 395.431,237.322 394.978,239.889 394.455 C 242.456 393.932,244.573 393.489,244.595 393.472 C 244.656 393.423,244.060 390.653,243.969 390.562 C 243.924 390.517,241.788 390.910,239.222 391.436 C 236.655 391.961,234.526 392.365,234.491 392.334 C 234.409 392.263,233.333 387.095,233.333 386.774 C 233.333 386.645,235.580 386.097,238.333 385.556 C 243.896 384.461,243.524 384.687,243.093 382.678 C 242.802 381.323,243.440 381.323,236.778 382.680 M172.517 384.624 C 171.776 384.730,170.959 385.690,170.822 386.613 C 170.345 389.844,168.616 405.134,168.716 405.235 C 168.893 405.412,171.779 405.803,171.982 405.678 C 172.074 405.621,172.335 403.869,172.561 401.786 C 172.910 398.579,173.026 398.012,173.320 398.094 C 173.511 398.147,174.367 398.256,175.222 398.336 L 176.778 398.481 178.889 402.590 C 180.050 404.850,181.053 406.733,181.117 406.776 C 181.346 406.928,184.937 407.359,185.048 407.248 C 185.110 407.186,184.110 405.156,182.826 402.737 L 180.490 398.337 181.856 397.614 C 187.281 394.739,186.128 386.766,180.099 385.464 C 178.896 385.204,173.016 384.553,172.517 384.624 M224.111 384.915 C 217.857 385.687,213.863 389.496,213.601 394.939 C 213.254 402.130,218.695 406.720,226.667 405.962 C 229.736 405.671,229.612 405.763,229.422 403.906 L 229.268 402.410 227.356 402.594 C 220.675 403.237,217.229 400.752,217.248 395.305 C 217.263 391.225,219.929 388.747,224.903 388.190 C 227.718 387.874,227.648 387.931,227.454 386.128 L 227.298 384.667 226.482 384.695 C 226.034 384.710,224.967 384.809,224.111 384.915 M186.244 386.833 C 186.372 387.169,187.860 391.244,189.552 395.889 C 191.243 400.533,192.838 404.893,193.095 405.577 C 193.953 407.861,195.454 408.590,196.826 407.389 C 197.401 406.886,205.778 387.598,205.778 386.777 C 205.778 386.716,204.903 386.669,203.833 386.671 L 201.889 386.676 198.889 394.053 C 197.239 398.110,195.835 401.630,195.769 401.876 C 195.693 402.161,194.689 399.616,193.012 394.884 C 189.591 385.233,190.176 386.222,187.889 386.222 L 186.011 386.222 186.244 386.833 M207.389 386.383 C 206.893 386.444,206.668 386.590,206.669 386.847 C 206.671 387.054,206.870 391.272,207.111 396.222 C 207.353 401.172,207.551 405.762,207.553 406.421 L 207.556 407.619 209.379 407.467 C 210.383 407.384,211.223 407.294,211.248 407.269 C 211.289 407.226,210.293 386.402,210.244 386.278 C 210.214 386.202,208.274 386.273,207.389 386.383 M177.304 388.223 C 180.381 388.573,181.491 389.384,181.724 391.452 C 182.072 394.541,180.257 395.786,176.080 395.320 C 173.031 394.981,173.311 395.441,173.797 391.556 C 174.019 389.783,174.206 388.206,174.211 388.051 C 174.218 387.876,174.412 387.810,174.722 387.878 C 174.997 387.937,176.159 388.093,177.304 388.223 " stroke="none" fill="#343c98" fill-rule="evenodd"></path><path id="path2" d="M190.000 52.919 C 185.977 53.192,179.557 53.927,175.321 54.600 L 171.642 55.184 171.402 55.870 C 171.270 56.247,170.844 57.306,170.455 58.222 C 165.065 70.944,169.928 86.865,181.585 94.662 C 207.411 111.937,239.185 84.836,226.427 56.416 L 225.667 54.722 222.444 54.247 C 212.660 52.804,199.580 52.268,190.000 52.919 M161.333 57.420 C 160.294 57.697,158.894 58.088,158.222 58.288 C 157.550 58.489,156.250 58.866,155.333 59.125 C 153.054 59.770,153.054 59.633,155.337 62.585 C 157.753 65.708,157.237 65.563,158.833 63.570 L 160.157 61.917 159.749 60.348 C 159.197 58.223,159.180 58.277,160.500 57.910 C 163.068 57.194,163.874 56.935,163.556 56.926 C 163.372 56.920,162.372 57.143,161.333 57.420 M237.892 57.596 C 237.834 57.757,237.603 58.692,237.378 59.673 L 236.968 61.457 238.352 63.169 L 239.736 64.880 241.898 61.988 C 243.086 60.398,243.998 59.035,243.924 58.961 C 243.782 58.819,242.329 58.402,240.111 57.865 C 239.378 57.688,238.602 57.488,238.388 57.423 C 238.172 57.356,237.951 57.434,237.892 57.596 M249.732 61.500 C 249.532 61.836,248.076 63.854,246.497 65.985 L 243.625 69.859 246.166 73.207 C 247.564 75.049,248.793 76.587,248.897 76.625 C 249.189 76.733,265.175 67.547,265.440 67.119 C 265.595 66.868,258.891 64.033,253.017 61.866 C 249.881 60.709,250.183 60.743,249.732 61.500 M142.222 63.744 C 134.712 66.789,132.123 68.044,132.606 68.402 C 133.672 69.195,148.426 77.437,148.536 77.301 C 148.571 77.258,149.728 75.691,151.107 73.819 L 153.614 70.415 152.973 69.552 C 148.697 63.783,147.204 61.812,147.111 61.810 C 147.050 61.808,144.850 62.679,142.222 63.744 M235.111 69.889 C 235.111 70.603,235.158 70.682,235.444 70.444 C 235.628 70.292,235.778 70.042,235.778 69.889 C 235.778 69.735,235.628 69.485,235.444 69.333 C 235.158 69.096,235.111 69.174,235.111 69.889 M161.635 69.955 C 161.447 70.256,161.454 70.449,161.659 70.730 C 162.005 71.204,162.222 70.994,162.222 70.185 C 162.222 69.464,161.997 69.376,161.635 69.955 M267.111 72.875 C 264.606 74.439,260.406 76.978,257.778 78.517 C 255.150 80.056,252.873 81.395,252.717 81.491 C 252.512 81.618,253.119 82.621,254.905 85.111 C 256.264 87.006,258.426 90.086,259.710 91.956 L 262.043 95.356 263.299 95.226 C 273.066 94.217,298.375 90.016,299.929 89.147 C 300.375 88.897,293.369 83.459,287.222 79.283 C 283.617 76.834,277.259 72.978,273.956 71.237 L 271.667 70.031 267.111 72.875 M124.222 72.263 C 116.840 76.642,114.915 77.865,109.250 81.778 C 106.673 83.558,98.444 90.122,98.445 90.397 C 98.448 90.884,120.301 94.483,127.667 95.210 C 128.400 95.282,129.350 95.385,129.778 95.439 C 130.642 95.547,131.827 95.675,134.025 95.897 L 135.494 96.045 139.778 89.745 C 142.134 86.280,144.250 83.202,144.481 82.906 C 145.010 82.230,145.451 82.560,139.333 79.054 C 132.603 75.196,126.576 71.565,126.481 71.311 C 126.369 71.009,126.258 71.056,124.222 72.263 M238.667 76.249 C 238.117 76.989,237.540 77.771,237.385 77.985 C 237.153 78.306,237.194 78.749,237.615 80.501 L 238.126 82.627 240.833 81.189 L 243.539 79.752 241.714 77.333 C 239.555 74.473,239.895 74.594,238.667 76.249 M155.722 77.672 C 153.612 80.513,153.511 80.073,156.654 81.725 L 159.301 83.116 159.556 81.836 C 159.697 81.132,159.909 80.178,160.027 79.717 C 160.145 79.256,160.169 78.756,160.079 78.606 C 159.899 78.304,157.523 75.328,157.475 75.343 C 157.458 75.348,156.669 76.396,155.722 77.672 M231.355 85.562 C 230.965 86.047,230.714 86.444,230.797 86.444 C 231.163 86.444,232.444 85.490,232.444 85.217 C 232.444 84.583,232.038 84.712,231.355 85.562 M243.391 86.631 C 241.406 87.707,239.731 88.639,239.669 88.702 C 239.557 88.814,241.195 97.052,241.360 97.206 C 241.444 97.285,242.529 97.202,250.000 96.545 C 252.139 96.357,254.214 96.183,254.611 96.157 C 255.008 96.132,255.333 96.048,255.333 95.970 C 255.334 95.688,247.321 84.664,247.119 84.670 C 247.054 84.672,245.376 85.554,243.391 86.631 M165.042 85.352 C 164.967 85.637,164.928 85.881,164.953 85.895 C 164.979 85.908,165.375 86.134,165.833 86.397 C 166.853 86.981,166.872 86.815,165.914 85.695 C 165.198 84.860,165.173 84.850,165.042 85.352 M146.978 89.712 C 145.179 92.254,143.361 94.813,142.938 95.399 C 142.515 95.986,142.216 96.512,142.273 96.570 C 142.481 96.777,156.014 97.838,156.191 97.661 C 156.284 97.568,157.991 89.240,157.925 89.201 C 157.905 89.189,156.489 88.450,154.778 87.559 C 153.067 86.668,151.348 85.748,150.958 85.515 L 150.249 85.091 146.978 89.712 M231.000 93.176 L 228.334 94.556 227.806 96.287 C 227.516 97.240,227.316 98.045,227.362 98.077 C 227.481 98.160,234.984 97.744,235.086 97.649 C 235.156 97.583,234.538 94.326,234.067 92.278 C 233.918 91.629,234.081 91.582,231.000 93.176 M163.476 92.611 C 163.013 94.260,162.416 97.836,162.579 97.985 C 162.814 98.201,170.222 98.529,170.222 98.324 C 170.222 98.247,170.012 97.461,169.755 96.577 L 169.288 94.969 166.531 93.596 C 163.382 92.027,163.619 92.104,163.476 92.611 M303.667 93.060 C 298.156 94.943,275.657 99.448,266.444 100.513 C 265.471 100.625,265.469 100.614,267.191 103.269 C 271.729 110.261,279.548 123.794,282.016 128.925 L 282.514 129.960 286.646 130.759 C 291.015 131.603,295.418 132.322,297.720 132.567 C 298.482 132.648,299.382 132.752,299.720 132.797 C 302.671 133.196,311.675 133.334,314.444 133.023 C 317.688 132.658,320.784 131.702,320.531 131.144 C 320.086 130.157,320.172 126.969,320.671 125.977 C 322.321 122.693,325.769 121.156,329.053 122.240 C 330.171 122.609,330.140 122.499,328.430 120.011 C 323.279 112.513,314.607 102.189,309.302 97.237 C 308.525 96.511,307.139 95.206,306.222 94.337 L 304.556 92.756 303.667 93.060 M89.535 98.605 C 81.809 106.441,73.064 117.194,69.477 123.269 C 69.390 123.416,69.797 123.318,70.381 123.051 C 75.982 120.489,82.041 126.736,79.246 132.189 C 78.911 132.843,78.669 133.404,78.707 133.436 C 80.429 134.861,94.894 134.731,103.556 133.212 C 103.861 133.158,104.561 133.053,105.111 132.978 C 105.661 132.903,106.168 132.807,106.238 132.766 C 106.307 132.724,106.807 132.630,107.349 132.556 C 108.638 132.379,115.315 130.983,115.422 130.867 C 115.468 130.818,116.180 129.428,117.004 127.778 C 120.239 121.302,124.085 114.459,129.039 106.359 C 130.675 103.684,131.984 101.466,131.949 101.430 C 131.913 101.394,131.335 101.303,130.664 101.227 C 129.526 101.098,128.684 100.983,127.333 100.773 C 127.028 100.726,126.278 100.626,125.667 100.550 C 117.516 99.547,96.801 95.468,94.212 94.357 C 93.965 94.251,92.647 95.449,89.535 98.605 M257.778 101.569 C 257.106 101.668,253.406 102.066,249.556 102.453 C 245.706 102.841,242.541 103.172,242.524 103.190 C 242.507 103.208,242.865 105.222,243.320 107.667 C 243.775 110.111,244.375 113.611,244.653 115.444 C 244.931 117.278,245.236 118.980,245.330 119.228 C 245.646 120.060,275.374 128.922,275.943 128.354 C 276.327 127.969,259.495 101.082,259.045 101.361 C 259.020 101.376,258.450 101.470,257.778 101.569 M135.681 106.279 C 131.254 113.044,126.513 120.856,122.445 128.088 L 121.708 129.399 122.354 129.246 C 131.934 126.976,152.383 120.500,152.549 119.683 C 152.601 119.430,153.146 116.020,153.761 112.106 C 154.377 108.192,154.941 104.686,155.015 104.315 L 155.150 103.640 151.519 103.362 C 149.523 103.209,145.989 102.891,143.667 102.655 C 141.344 102.419,139.194 102.226,138.889 102.226 C 138.413 102.225,137.951 102.809,135.681 106.279 M232.222 103.899 C 230.206 104.052,227.835 104.188,226.954 104.200 L 225.352 104.222 224.232 107.748 C 223.615 109.687,223.111 111.366,223.111 111.480 C 223.111 111.778,238.782 117.514,239.001 117.296 C 239.304 116.992,236.509 103.544,236.152 103.587 C 236.007 103.605,234.239 103.745,232.222 103.899 M160.577 107.167 C 159.223 114.561,158.731 117.778,158.956 117.778 C 159.355 117.778,174.388 112.130,174.628 111.890 C 174.696 111.823,172.494 104.921,172.343 104.726 C 172.321 104.697,170.310 104.572,167.874 104.449 C 165.438 104.326,162.930 104.175,162.301 104.113 L 161.157 104.001 160.577 107.167 M213.897 106.111 C 212.797 107.364,212.683 107.575,213.037 107.707 C 213.261 107.791,214.291 108.190,215.325 108.594 C 217.607 109.485,217.256 109.855,218.788 104.944 C 218.853 104.737,218.402 104.667,217.020 104.667 L 215.165 104.667 213.897 106.111 M178.889 105.055 C 178.889 105.229,180.243 109.396,180.337 109.510 C 180.401 109.589,184.197 108.077,184.646 107.795 C 184.891 107.640,184.700 107.308,183.757 106.248 L 182.556 104.899 180.722 104.894 C 179.714 104.891,178.889 104.964,178.889 105.055 M197.056 109.161 C 195.244 109.983,195.232 109.739,197.194 111.857 L 198.813 113.602 200.129 112.206 C 200.852 111.438,201.628 110.619,201.852 110.386 C 202.351 109.868,202.429 109.940,200.504 109.121 C 198.621 108.320,198.917 108.317,197.056 109.161 M205.764 115.041 C 204.366 116.563,203.197 117.877,203.166 117.961 C 203.097 118.150,211.506 126.574,211.624 126.434 C 211.671 126.379,212.569 123.815,213.621 120.737 L 215.533 115.140 212.822 114.089 C 211.331 113.512,209.705 112.867,209.208 112.656 L 208.305 112.274 205.764 115.041 M185.778 113.895 C 183.570 114.798,182.354 115.410,182.392 115.597 C 182.424 115.757,183.320 118.333,184.382 121.321 L 186.314 126.753 190.488 122.432 C 192.784 120.056,194.639 118.044,194.609 117.961 C 194.508 117.679,189.519 112.444,189.371 112.465 C 189.289 112.476,187.672 113.119,185.778 113.895 M221.013 117.535 C 220.944 117.646,220.298 119.421,219.577 121.479 C 218.856 123.538,217.802 126.463,217.235 127.980 C 215.988 131.313,215.831 130.741,218.772 133.556 C 220.114 134.839,221.076 135.714,220.912 135.500 C 220.627 135.131,221.150 135.111,231.195 135.111 C 240.787 135.111,241.778 135.078,241.778 134.752 C 241.778 134.355,240.219 123.916,240.153 123.868 C 240.130 123.852,238.061 123.160,235.556 122.330 C 233.050 121.501,228.807 120.037,226.126 119.078 C 220.600 117.100,221.174 117.273,221.013 117.535 M176.196 117.655 C 176.041 117.811,166.415 121.354,161.667 123.004 L 157.667 124.393 156.957 129.252 C 156.567 131.925,156.242 134.336,156.235 134.611 L 156.222 135.111 166.928 135.111 L 177.633 135.111 177.102 135.722 C 176.811 136.058,177.756 135.170,179.203 133.749 L 181.834 131.164 179.945 126.193 C 178.906 123.459,177.758 120.427,177.395 119.456 C 176.788 117.830,176.481 117.370,176.196 117.655 M193.829 127.393 C 190.990 130.234,188.667 132.666,188.667 132.797 C 188.667 133.152,189.757 135.713,189.768 135.384 C 189.776 135.159,191.679 135.114,199.102 135.162 L 208.426 135.222 208.895 133.935 C 209.474 132.346,210.085 133.194,204.103 127.280 L 198.992 122.227 193.829 127.393 M246.364 125.956 C 246.313 126.041,246.536 128.161,246.858 130.667 L 247.444 135.222 263.621 135.111 C 282.864 134.979,282.875 134.977,273.994 133.091 C 266.210 131.438,251.411 127.569,247.395 126.136 C 246.878 125.952,246.415 125.871,246.364 125.956 M148.778 127.256 C 141.077 129.697,130.597 132.484,120.667 134.732 C 119.345 135.031,120.548 135.061,134.833 135.085 C 149.534 135.110,150.446 135.134,150.467 135.500 C 150.486 135.835,150.774 133.588,151.450 127.833 C 151.541 127.057,151.527 126.452,151.418 126.463 C 151.310 126.473,150.122 126.830,148.778 127.256 M64.329 131.700 C 63.354 133.475,62.530 134.993,62.500 135.075 C 62.469 135.156,64.037 135.193,65.983 135.156 L 69.523 135.090 68.544 134.188 C 67.324 133.063,66.448 131.314,66.343 129.793 C 66.299 129.155,66.227 128.597,66.183 128.554 C 66.139 128.510,65.305 129.926,64.329 131.700 M333.699 129.459 C 333.401 131.637,332.236 133.378,330.358 134.455 L 329.222 135.107 333.333 135.113 L 337.444 135.118 338.769 137.661 C 339.498 139.059,340.133 140.163,340.181 140.115 C 340.272 140.024,337.544 134.753,336.417 132.842 C 336.065 132.246,335.778 131.723,335.778 131.680 C 335.778 131.612,334.031 128.663,333.891 128.494 C 333.863 128.460,333.777 128.894,333.699 129.459 M322.138 133.936 C 322.051 134.023,321.459 134.319,320.823 134.594 L 319.667 135.093 322.000 135.105 C 323.283 135.112,324.583 135.168,324.889 135.230 C 325.194 135.292,325.058 135.192,324.585 135.007 C 324.113 134.823,323.613 134.737,323.474 134.816 C 323.336 134.895,323.294 134.881,323.381 134.784 C 323.662 134.473,322.437 133.637,322.138 133.936 M70.338 135.534 C 70.458 135.651,70.856 135.817,71.222 135.904 C 72.082 136.108,71.889 135.919,70.894 135.583 C 70.469 135.439,70.219 135.417,70.338 135.534 M326.167 135.494 C 326.564 135.543,327.214 135.543,327.611 135.494 C 328.008 135.445,327.683 135.404,326.889 135.404 C 326.094 135.404,325.769 135.445,326.167 135.494 M62.072 135.833 C 61.742 136.352,60.909 138.222,61.007 138.222 C 61.061 138.222,61.408 137.622,61.778 136.889 C 62.375 135.705,62.549 135.082,62.072 135.833 M72.722 136.153 C 72.936 136.209,73.286 136.209,73.500 136.153 C 73.714 136.097,73.539 136.052,73.111 136.052 C 72.683 136.052,72.508 136.097,72.722 136.153 M78.333 136.564 C 78.700 136.731,79.150 136.866,79.333 136.862 C 79.517 136.858,79.317 136.720,78.889 136.556 C 77.874 136.165,77.475 136.171,78.333 136.564 M112.376 136.365 C 112.522 136.425,112.588 136.642,112.522 136.848 C 112.420 137.168,112.437 137.174,112.642 136.889 C 112.986 136.411,112.945 136.220,112.500 136.240 C 112.286 136.249,112.230 136.306,112.376 136.365 M150.274 137.333 C 150.274 137.761,150.320 137.936,150.375 137.722 C 150.431 137.508,150.431 137.158,150.375 136.944 C 150.320 136.731,150.274 136.906,150.274 137.333 M296.836 136.824 C 297.112 136.877,297.512 136.875,297.725 136.819 C 297.937 136.764,297.711 136.720,297.222 136.723 C 296.733 136.725,296.559 136.771,296.836 136.824 M223.222 137.778 C 223.700 138.267,224.140 138.667,224.201 138.667 C 224.262 138.667,223.922 138.267,223.444 137.778 C 222.967 137.289,222.526 136.889,222.465 136.889 C 222.404 136.889,222.745 137.289,223.222 137.778 M300.056 137.048 C 300.392 137.099,300.942 137.099,301.278 137.048 C 301.614 136.997,301.339 136.955,300.667 136.955 C 299.994 136.955,299.719 136.997,300.056 137.048 M308.500 137.048 C 308.836 137.099,309.386 137.099,309.722 137.048 C 310.058 136.997,309.783 136.955,309.111 136.955 C 308.439 136.955,308.164 136.997,308.500 137.048 M100.056 137.937 C 100.392 137.988,100.942 137.988,101.278 137.937 C 101.614 137.886,101.339 137.844,100.667 137.844 C 99.994 137.844,99.719 137.886,100.056 137.937 M86.389 138.161 C 86.786 138.210,87.436 138.210,87.833 138.161 C 88.231 138.111,87.906 138.071,87.111 138.071 C 86.317 138.071,85.992 138.111,86.389 138.161 M96.839 138.163 C 97.362 138.210,98.162 138.209,98.617 138.162 C 99.072 138.114,98.644 138.075,97.667 138.076 C 96.689 138.077,96.317 138.116,96.839 138.163 M90.389 138.388 C 91.397 138.429,93.047 138.429,94.056 138.388 C 95.064 138.346,94.239 138.313,92.222 138.313 C 90.206 138.313,89.381 138.346,90.389 138.388 M173.333 139.222 C 172.794 139.772,172.402 140.222,172.463 140.222 C 172.524 140.222,173.016 139.772,173.556 139.222 C 174.095 138.672,174.487 138.222,174.426 138.222 C 174.365 138.222,173.873 138.672,173.333 139.222 M216.333 139.111 C 216.811 139.600,217.251 140.000,217.312 140.000 C 217.374 140.000,217.033 139.600,216.556 139.111 C 216.078 138.622,215.638 138.222,215.576 138.222 C 215.515 138.222,215.856 138.622,216.333 139.111 M181.099 139.722 L 180.333 140.556 181.167 139.790 C 181.942 139.077,182.102 138.889,181.932 138.889 C 181.895 138.889,181.520 139.264,181.099 139.722 M226.000 140.333 C 226.415 140.761,226.804 141.111,226.865 141.111 C 226.926 141.111,226.637 140.761,226.222 140.333 C 225.808 139.906,225.418 139.556,225.357 139.556 C 225.296 139.556,225.585 139.906,226.000 140.333 M115.814 140.787 C 115.442 141.604,115.513 141.779,115.915 141.036 C 116.103 140.689,116.215 140.364,116.165 140.313 C 116.114 140.262,115.956 140.475,115.814 140.787 M218.556 141.111 C 219.033 141.600,219.474 142.000,219.535 142.000 C 219.596 142.000,219.255 141.600,218.778 141.111 C 218.300 140.622,217.860 140.222,217.799 140.222 C 217.738 140.222,218.078 140.622,218.556 141.111 M248.052 141.111 C 248.052 141.539,248.097 141.714,248.153 141.500 C 248.209 141.286,248.209 140.936,248.153 140.722 C 248.097 140.508,248.052 140.683,248.052 141.111 M340.466 141.000 C 340.466 141.122,340.806 141.872,341.222 142.667 C 341.638 143.461,341.978 144.011,341.978 143.889 C 341.978 143.767,341.638 143.017,341.222 142.222 C 340.806 141.428,340.466 140.878,340.466 141.000 M170.210 142.167 L 169.444 143.000 170.278 142.234 C 171.053 141.521,171.213 141.333,171.044 141.333 C 171.006 141.333,170.631 141.708,170.210 142.167 M149.829 142.222 C 149.829 142.650,149.875 142.825,149.931 142.611 C 149.987 142.397,149.987 142.047,149.931 141.833 C 149.875 141.619,149.829 141.794,149.829 142.222 M178.319 142.278 L 177.667 143.000 178.389 142.347 C 178.786 141.988,179.111 141.663,179.111 141.625 C 179.111 141.453,178.928 141.605,178.319 142.278 M220.000 142.292 C 220.000 142.330,220.325 142.655,220.722 143.014 L 221.444 143.667 220.792 142.944 C 220.183 142.271,220.000 142.120,220.000 142.292 M248.274 143.556 C 248.274 143.983,248.320 144.158,248.375 143.944 C 248.431 143.731,248.431 143.381,248.375 143.167 C 248.320 142.953,248.274 143.128,248.274 143.556 M167.653 144.500 L 167.000 145.222 167.722 144.570 C 168.119 144.211,168.444 143.886,168.444 143.847 C 168.444 143.676,168.261 143.827,167.653 144.500 M221.778 143.847 C 221.778 143.886,222.103 144.211,222.500 144.570 L 223.222 145.222 222.570 144.500 C 221.961 143.827,221.778 143.676,221.778 143.847 M149.628 145.667 C 149.629 146.522,149.670 146.845,149.718 146.384 C 149.766 145.923,149.765 145.223,149.716 144.828 C 149.667 144.434,149.627 144.811,149.628 145.667 M342.045 144.345 C 342.220 144.964,344.750 150.657,344.820 150.588 C 344.914 150.493,342.855 145.639,342.337 144.736 C 342.140 144.392,342.009 144.216,342.045 144.345 M248.500 146.111 C 248.503 146.600,248.548 146.774,248.602 146.497 C 248.655 146.221,248.653 145.821,248.597 145.609 C 248.542 145.396,248.498 145.622,248.500 146.111 M154.718 148.444 C 154.718 148.872,154.764 149.047,154.820 148.833 C 154.876 148.619,154.876 148.269,154.820 148.056 C 154.764 147.842,154.718 148.017,154.718 148.444 M248.723 149.000 C 248.725 149.489,248.771 149.663,248.824 149.386 C 248.877 149.110,248.875 148.710,248.819 148.497 C 248.764 148.285,248.720 148.511,248.723 149.000 M149.397 149.667 C 149.399 150.278,149.442 150.501,149.493 150.164 C 149.544 149.826,149.543 149.326,149.490 149.053 C 149.437 148.779,149.395 149.056,149.397 149.667 M154.500 151.000 C 154.503 151.489,154.548 151.663,154.602 151.386 C 154.655 151.110,154.653 150.710,154.597 150.497 C 154.542 150.285,154.498 150.511,154.500 151.000 M243.607 151.333 C 243.607 151.761,243.653 151.936,243.709 151.722 C 243.765 151.508,243.765 151.158,243.709 150.944 C 243.653 150.731,243.607 150.906,243.607 151.333 M248.952 152.556 C 248.954 153.167,248.997 153.390,249.048 153.053 C 249.099 152.715,249.098 152.215,249.045 151.941 C 248.993 151.668,248.951 151.944,248.952 152.556 M149.182 154.222 C 149.182 155.017,149.223 155.342,149.272 154.944 C 149.321 154.547,149.321 153.897,149.272 153.500 C 149.223 153.103,149.182 153.428,149.182 154.222 M154.278 153.889 C 154.281 154.378,154.326 154.552,154.379 154.275 C 154.433 153.999,154.431 153.599,154.375 153.386 C 154.319 153.174,154.276 153.400,154.278 153.889 M243.834 153.889 C 243.836 154.378,243.882 154.552,243.935 154.275 C 243.988 153.999,243.986 153.599,243.930 153.386 C 243.875 153.174,243.831 153.400,243.834 153.889 M249.186 157.333 C 249.186 158.250,249.225 158.625,249.273 158.167 C 249.321 157.708,249.321 156.958,249.273 156.500 C 249.225 156.042,249.186 156.417,249.186 157.333 M244.519 165.111 C 244.519 166.028,244.558 166.403,244.606 165.944 C 244.654 165.486,244.654 164.736,244.606 164.278 C 244.558 163.819,244.519 164.194,244.519 165.111 M104.056 165.000 C 104.059 165.489,104.104 165.663,104.157 165.386 C 104.210 165.110,104.208 164.710,104.153 164.497 C 104.097 164.285,104.054 164.511,104.056 165.000 M294.295 166.556 C 294.296 167.411,294.336 167.734,294.384 167.273 C 294.433 166.812,294.432 166.112,294.383 165.717 C 294.334 165.323,294.294 165.700,294.295 166.556 M107.163 167.111 C 107.163 167.539,107.208 167.714,107.264 167.500 C 107.320 167.286,107.320 166.936,107.264 166.722 C 107.208 166.508,107.163 166.683,107.163 167.111 M291.184 168.111 C 291.185 168.967,291.225 169.289,291.273 168.828 C 291.321 168.367,291.321 167.667,291.271 167.273 C 291.222 166.878,291.183 167.256,291.184 168.111 M149.180 171.000 C 149.181 171.733,149.223 172.007,149.272 171.607 C 149.322 171.208,149.321 170.608,149.270 170.274 C 149.219 169.940,149.179 170.267,149.180 171.000 M149.389 175.000 C 149.392 175.489,149.437 175.663,149.491 175.386 C 149.544 175.110,149.542 174.710,149.486 174.497 C 149.430 174.285,149.387 174.511,149.389 175.000 M282.862 176.396 C 282.789 176.837,282.822 177.045,282.945 176.922 C 283.057 176.810,283.112 176.481,283.066 176.192 C 282.996 175.747,282.965 175.779,282.862 176.396 M244.516 177.333 C 244.516 178.128,244.556 178.453,244.605 178.056 C 244.654 177.658,244.654 177.008,244.605 176.611 C 244.556 176.214,244.516 176.539,244.516 177.333 M115.056 180.829 C 115.575 180.876,116.425 180.876,116.944 180.829 C 117.464 180.783,117.039 180.744,116.000 180.744 C 114.961 180.744,114.536 180.783,115.056 180.829 M244.274 181.333 C 244.274 181.761,244.320 181.936,244.375 181.722 C 244.431 181.508,244.431 181.158,244.375 180.944 C 244.320 180.731,244.274 180.906,244.274 181.333 M219.222 198.222 C 219.948 198.956,220.592 199.556,220.653 199.556 C 220.714 199.556,220.170 198.956,219.444 198.222 C 218.719 197.489,218.075 196.889,218.014 196.889 C 217.953 196.889,218.497 197.489,219.222 198.222 M44.064 205.222 C 44.065 205.833,44.108 206.057,44.159 205.719 C 44.211 205.381,44.209 204.881,44.156 204.608 C 44.104 204.335,44.062 204.611,44.064 205.222 M356.056 205.000 C 356.059 205.489,356.104 205.663,356.157 205.386 C 356.210 205.110,356.208 204.710,356.153 204.497 C 356.097 204.285,356.054 204.511,356.056 205.000 M44.064 212.111 C 44.065 212.722,44.108 212.946,44.159 212.608 C 44.211 212.270,44.209 211.770,44.156 211.497 C 44.104 211.224,44.062 211.500,44.064 212.111 M355.945 211.500 C 355.900 211.592,355.931 212.017,356.014 212.444 L 356.164 213.222 356.193 212.278 C 356.220 211.391,356.132 211.115,355.945 211.500 M146.378 241.336 C 146.758 241.770,146.884 242.238,146.945 243.447 L 147.024 245.000 147.068 243.428 C 147.108 241.965,147.068 241.818,146.500 241.317 L 145.889 240.778 146.378 241.336 M192.044 243.354 C 191.983 245.686,191.898 245.746,188.546 245.826 L 185.889 245.889 185.887 261.111 L 185.884 276.333 185.944 261.167 L 186.003 246.000 188.629 246.000 C 192.030 246.000,192.283 245.807,192.166 243.308 L 192.088 241.667 192.044 243.354 M251.408 243.333 C 251.408 244.250,251.447 244.625,251.495 244.167 C 251.543 243.708,251.543 242.958,251.495 242.500 C 251.447 242.042,251.408 242.417,251.408 243.333 M98.937 247.037 C 98.903 249.132,98.810 249.995,98.611 250.075 C 98.394 250.163,98.395 250.191,98.618 250.205 C 99.074 250.233,99.130 249.805,99.055 246.877 L 98.985 244.111 98.937 247.037 M220.281 245.271 C 220.619 245.322,221.119 245.320,221.392 245.268 C 221.665 245.215,221.389 245.173,220.778 245.175 C 220.167 245.176,219.943 245.219,220.281 245.271 M107.084 245.841 C 107.181 245.936,108.451 245.986,109.907 245.951 L 112.556 245.887 109.733 245.777 C 108.180 245.716,106.988 245.745,107.084 245.841 M114.064 245.942 C 114.771 245.986,115.871 245.986,116.508 245.941 C 117.145 245.897,116.567 245.860,115.222 245.861 C 113.878 245.861,113.356 245.898,114.064 245.942 M129.165 245.942 L 133.997 246.008 134.056 259.949 L 134.116 273.889 134.114 259.889 L 134.111 245.889 129.222 245.883 L 124.333 245.876 129.165 245.942 M141.944 245.942 C 142.708 245.986,143.958 245.986,144.722 245.942 C 145.486 245.899,144.861 245.863,143.333 245.863 C 141.806 245.863,141.181 245.899,141.944 245.942 M159.500 245.939 C 159.897 245.988,160.547 245.988,160.944 245.939 C 161.342 245.889,161.017 245.849,160.222 245.849 C 159.428 245.849,159.103 245.889,159.500 245.939 M170.709 245.944 C 172.260 245.982,174.860 245.982,176.487 245.944 C 178.114 245.906,176.844 245.875,173.667 245.875 C 170.489 245.874,169.158 245.906,170.709 245.944 M98.970 255.222 C 98.971 256.444,99.008 256.916,99.053 256.270 C 99.098 255.625,99.098 254.625,99.052 254.048 C 99.006 253.472,98.969 254.000,98.970 255.222 M232.278 256.820 C 232.492 256.876,232.842 256.876,233.056 256.820 C 233.269 256.764,233.094 256.718,232.667 256.718 C 232.239 256.718,232.064 256.764,232.278 256.820 M217.614 257.715 C 217.952 257.766,218.452 257.765,218.725 257.712 C 218.999 257.659,218.722 257.617,218.111 257.619 C 217.500 257.621,217.276 257.664,217.614 257.715 M234.500 261.493 C 234.836 261.543,235.386 261.543,235.722 261.493 C 236.058 261.442,235.783 261.400,235.111 261.400 C 234.439 261.400,234.164 261.442,234.500 261.493 M217.845 299.721 C 219.043 299.761,220.943 299.761,222.067 299.721 C 223.191 299.681,222.211 299.648,219.889 299.648 C 217.567 299.648,216.647 299.681,217.845 299.721 M228.940 304.667 C 228.940 305.094,228.986 305.269,229.042 305.056 C 229.098 304.842,229.098 304.492,229.042 304.278 C 228.986 304.064,228.940 304.239,228.940 304.667 M182.222 314.889 L 176.333 315.011 182.278 315.061 C 186.126 315.093,188.222 315.033,188.222 314.889 C 188.222 314.767,188.197 314.689,188.167 314.717 C 188.136 314.744,185.461 314.822,182.222 314.889 " stroke="none" fill="#3491d2" fill-rule="evenodd"></path><path id="path3" d="M29.333 107.361 C 28.167 108.023,27.797 108.524,25.704 112.285 C 12.502 136.007,4.142 163.087,1.678 190.111 C 0.338 204.809,0.333 217.348,1.667 219.669 C 3.067 222.107,6.350 222.218,8.126 219.889 L 8.749 219.073 8.786 208.925 C 8.910 174.843,16.667 144.713,32.802 115.640 C 33.827 113.792,34.728 111.970,34.804 111.592 C 35.396 108.630,31.885 105.915,29.333 107.361 M367.444 107.432 C 364.539 109.106,364.548 110.641,367.491 116.017 C 383.570 145.385,390.998 174.136,391.253 207.991 L 391.336 218.982 391.890 219.820 C 393.595 222.395,397.436 222.011,398.739 219.135 C 399.682 217.054,399.384 199.664,398.206 188.022 C 395.567 161.935,387.418 135.896,374.658 112.775 C 371.463 106.984,370.044 105.933,367.444 107.432 " stroke="none" fill="#fc9c2c" fill-rule="evenodd"></path><path id="path4" d="M40.857 114.779 C 39.797 115.474,39.542 115.858,37.132 120.385 C 22.597 147.690,15.032 178.847,15.374 210.000 C 15.464 218.191,15.496 218.437,16.625 219.631 C 18.329 221.432,20.736 221.356,22.411 219.448 C 23.277 218.463,23.181 219.657,23.229 209.222 C 23.374 177.831,30.143 150.308,44.263 123.706 C 46.645 119.218,46.716 119.044,46.622 117.908 C 46.380 114.994,43.179 113.257,40.857 114.779 M355.298 114.864 C 353.047 116.291,352.821 118.278,354.560 121.338 C 369.202 147.100,377.358 179.984,376.837 211.155 C 376.695 219.672,377.177 220.889,380.690 220.889 C 384.185 220.889,384.654 219.482,384.660 209.000 C 384.677 178.453,378.263 150.945,364.890 124.222 C 359.789 114.028,358.539 112.808,355.298 114.864 " stroke="none" fill="#048c04" fill-rule="evenodd"></path></g></svg>